<svg xmlns="http://www.w3.org/2000/svg" width="480" height="302" class="">
    <defs>
        <style/>
    </defs>
    <style>@keyframes animation-gauge{0%{stroke-dasharray:0 329}}@keyframes animation-rainbow{0%,to{color:#7f00ff;fill:#7f00ff}14%{color:#a933ff;fill:#a933ff}29%{color:#007fff;fill:#007fff}43%{color:#00ff7f;fill:#00ff7f}57%{color:#ff0;fill:#ff0}71%{color:#ff7f00;fill:#ff7f00}86%{color:red;fill:red}}svg{font-family:-apple-system,BlinkMacSystemFont,Segoe UI,Helvetica,Arial,sans-serif,Apple Color Emoji,Segoe UI Emoji;font-size:14px;color:#777}h2{margin:8px 0 2px;padding:0;color:#0366d6;font-weight:400;font-size:16px}h2 svg{fill:currentColor}section&gt;.field{margin-left:5px;margin-right:5px}.field{display:flex;align-items:center;margin-bottom:2px;white-space:nowrap}.field svg{margin:0 8px;fill:#959da5;flex-shrink:0}.row{display:flex;flex-wrap:wrap}.row section{flex:1 1 0}:root{--color-calendar-graph-day-bg:#ebedf0;--color-calendar-graph-day-border:rgba(27,31,35,0.06);--color-calendar-graph-day-L1-bg:#9be9a8;--color-calendar-graph-day-L2-bg:#40c463;--color-calendar-graph-day-L3-bg:#30a14e;--color-calendar-graph-day-L4-bg:#216e39;--color-calendar-halloween-graph-day-L1-bg:#ffee4a;--color-calendar-halloween-graph-day-L2-bg:#ffc501;--color-calendar-halloween-graph-day-L3-bg:#fe9600;--color-calendar-halloween-graph-day-L4-bg:#03001c;--color-calendar-winter-graph-day-L1-bg:#0a3069;--color-calendar-winter-graph-day-L2-bg:#0969da;--color-calendar-winter-graph-day-L3-bg:#54aeff;--color-calendar-winter-graph-day-L4-bg:#b6e3ff;--color-calendar-graph-day-L4-border:rgba(27,31,35,0.06);--color-calendar-graph-day-L3-border:rgba(27,31,35,0.06);--color-calendar-graph-day-L2-border:rgba(27,31,35,0.06);--color-calendar-graph-day-L1-border:rgba(27,31,35,0.06)}#metrics-end{width:100%}</style>
    <style/>
    <foreignObject x="0" y="0" width="100%" height="100%">
        <div xmlns="http://www.w3.org/1999/xhtml" xmlns:xlink="http://www.w3.org/1999/xlink" class="items-wrapper">
            <section>
                <h2 class="field">
                    <svg xmlns="http://www.w3.org/2000/svg" viewBox="0 0 16 16" width="16" height="16">
                        <path d="M10.75 9a.75.75 0 000 1.5h1.5a.75.75 0 000-1.5h-1.5z"/>
                        <path fill-rule="evenodd" d="M0 3.75C0 2.784.784 2 1.75 2h12.5c.966 0 1.75.784 1.75 1.75v8.5A1.75 1.75 0 0114.25 14H1.75A1.75 1.75 0 010 12.25v-8.5zm14.5 0V5h-13V3.75a.25.25 0 01.25-.25h12.5a.25.25 0 01.25.25zm0 2.75h-13v5.75c0 .138.112.25.25.25h12.5a.25.25 0 00.25-.25V6.5z"/>
                    </svg>
                    Stock prices for ACWI
                </h2>
                <div class="row">
                    <section>
                        <div class="field">
                            <svg xmlns="http://www.w3.org/2000/svg" viewBox="0 0 16 16" width="16" height="16">
                                <path fill-rule="evenodd" d="M1.5 14.25c0 .138.112.25.25.25H4v-1.25a.75.75 0 01.75-.75h2.5a.75.75 0 01.75.75v1.25h2.25a.25.25 0 00.25-.25V1.75a.25.25 0 00-.25-.25h-8.5a.25.25 0 00-.25.25v12.5zM1.75 16A1.75 1.75 0 010 14.25V1.75C0 .784.784 0 1.75 0h8.5C11.216 0 12 .784 12 1.75v12.5c0 .085-.006.168-.018.25h2.268a.25.25 0 00.25-.25V8.285a.25.25 0 00-.111-.208l-1.055-.703a.75.75 0 11.832-1.248l1.055.703c.487.325.779.871.779 1.456v5.965A1.75 1.75 0 0114.25 16h-3.5a.75.75 0 01-.197-.026c-.099.017-.2.026-.303.026h-3a.75.75 0 01-.75-.75V14h-1v1.25a.75.75 0 01-.75.75h-3zM3 3.75A.75.75 0 013.75 3h.5a.75.75 0 010 1.5h-.5A.75.75 0 013 3.75zM3.75 6a.75.75 0 000 1.5h.5a.75.75 0 000-1.5h-.5zM3 9.75A.75.75 0 013.75 9h.5a.75.75 0 010 1.5h-.5A.75.75 0 013 9.75zM7.75 9a.75.75 0 000 1.5h.5a.75.75 0 000-1.5h-.5zM7 6.75A.75.75 0 017.75 6h.5a.75.75 0 010 1.5h-.5A.75.75 0 017 6.75zM7.75 3a.75.75 0 000 1.5h.5a.75.75 0 000-1.5h-.5z"/>
                            </svg>
                            ACWI
                        </div>
                        <div class="field">
                            <svg xmlns="http://www.w3.org/2000/svg" viewBox="0 0 16 16" width="16" height="16">
                                <path fill-rule="evenodd" d="M6 2a.75.75 0 01.696.471L10 10.731l1.304-3.26A.75.75 0 0112 7h3.25a.75.75 0 010 1.5h-2.742l-1.812 4.528a.75.75 0 01-1.392 0L6 4.77 4.696 8.03A.75.75 0 014 8.5H.75a.75.75 0 010-1.5h2.742l1.812-4.529A.75.75 0 016 2z"/>
                            </svg>
                            Valued at 149.14 USD
                        </div>
                    </section>
                    <section>
                        <div class="field">
                            <svg xmlns="http://www.w3.org/2000/svg" viewBox="0 0 16 16" width="16" height="16">
                                <path fill-rule="evenodd" d="M4.75 0a.75.75 0 01.75.75V2h5V.75a.75.75 0 011.5 0V2h1.25c.966 0 1.75.784 1.75 1.75v10.5A1.75 1.75 0 0113.25 16H2.75A1.75 1.75 0 011 14.25V3.75C1 2.784 1.784 2 2.75 2H4V.75A.75.75 0 014.75 0zm0 3.5h8.5a.25.25 0 01.25.25V6h-11V3.75a.25.25 0 01.25-.25h2zm-2.25 4v6.75c0 .138.112.25.25.25h10.5a.25.25 0 00.25-.25V7.5h-11z"/>
                            </svg>
                            Last five days
                        </div>
                        <div class="field">
                            <svg xmlns="http://www.w3.org/2000/svg" viewBox="0 0 16 16" width="16" height="16">
                                <path fill-rule="evenodd" d="M13.03 8.22a.75.75 0 010 1.06l-4.25 4.25a.75.75 0 01-1.06 0L3.47 9.28a.75.75 0 011.06-1.06l2.97 2.97V3.75a.75.75 0 011.5 0v7.44l2.97-2.97a.75.75 0 011.06 0z"/>
                            </svg>
                            -0.48 USD (-0.32%)
                        </div>
                    </section>
                </div>
                <div class="stock-chart">
                    <svg xmlns="http://www.w3.org/2000/svg" width="480" height="200">
                        <g transform="translate(10,155)" fill="none" font-size="10" font-family="sans-serif" text-anchor="middle">
                            <path class="domain" stroke="rgba(127, 127, 127, .8)" d="M10.5,0.5H460.5"/>
                            <g class="tick" opacity="1" transform="translate(21.92367556761388,0)">
                                <line stroke="currentColor" y2="6" stroke-opacity="0.5"/>
                                <text fill="rgba(127, 127, 127, .8)" y="9" dy="0.71em" transform="translate(-5,5) rotate(-45)" style="text-anchor: end;">12 PM</text>
                            </g>
                            <g class="tick" opacity="1" transform="translate(56.19470227045552,0)">
                                <line stroke="currentColor" y2="6" stroke-opacity="0.5"/>
                                <text fill="rgba(127, 127, 127, .8)" y="9" dy="0.71em" transform="translate(-5,5) rotate(-45)" style="text-anchor: end;">Fri 24</text>
                            </g>
                            <g class="tick" opacity="1" transform="translate(90.46572897329716,0)">
                                <line stroke="currentColor" y2="6" stroke-opacity="0.5"/>
                                <text fill="rgba(127, 127, 127, .8)" y="9" dy="0.71em" transform="translate(-5,5) rotate(-45)" style="text-anchor: end;">12 PM</text>
                            </g>
                            <g class="tick" opacity="1" transform="translate(124.73675567613878,0)">
                                <line stroke="currentColor" y2="6" stroke-opacity="0.5"/>
                                <text fill="rgba(127, 127, 127, .8)" y="9" dy="0.71em" transform="translate(-5,5) rotate(-45)" style="text-anchor: end;">Sat 25</text>
                            </g>
                            <g class="tick" opacity="1" transform="translate(159.00778237898044,0)">
                                <line stroke="currentColor" y2="6" stroke-opacity="0.5"/>
                                <text fill="rgba(127, 127, 127, .8)" y="9" dy="0.71em" transform="translate(-5,5) rotate(-45)" style="text-anchor: end;">12 PM</text>
                            </g>
                            <g class="tick" opacity="1" transform="translate(193.2788090818221,0)">
                                <line stroke="currentColor" y2="6" stroke-opacity="0.5"/>
                                <text fill="rgba(127, 127, 127, .8)" y="9" dy="0.71em" transform="translate(-5,5) rotate(-45)" style="text-anchor: end;">Apr 26</text>
                            </g>
                            <g class="tick" opacity="1" transform="translate(227.5498357846637,0)">
                                <line stroke="currentColor" y2="6" stroke-opacity="0.5"/>
                                <text fill="rgba(127, 127, 127, .8)" y="9" dy="0.71em" transform="translate(-5,5) rotate(-45)" style="text-anchor: end;">12 PM</text>
                            </g>
                            <g class="tick" opacity="1" transform="translate(261.82086248750534,0)">
                                <line stroke="currentColor" y2="6" stroke-opacity="0.5"/>
                                <text fill="rgba(127, 127, 127, .8)" y="9" dy="0.71em" transform="translate(-5,5) rotate(-45)" style="text-anchor: end;">Mon 27</text>
                            </g>
                            <g class="tick" opacity="1" transform="translate(296.09188919034705,0)">
                                <line stroke="currentColor" y2="6" stroke-opacity="0.5"/>
                                <text fill="rgba(127, 127, 127, .8)" y="9" dy="0.71em" transform="translate(-5,5) rotate(-45)" style="text-anchor: end;">12 PM</text>
                            </g>
                            <g class="tick" opacity="1" transform="translate(330.36291589318864,0)">
                                <line stroke="currentColor" y2="6" stroke-opacity="0.5"/>
                                <text fill="rgba(127, 127, 127, .8)" y="9" dy="0.71em" transform="translate(-5,5) rotate(-45)" style="text-anchor: end;">Tue 28</text>
                            </g>
                            <g class="tick" opacity="1" transform="translate(364.6339425960303,0)">
                                <line stroke="currentColor" y2="6" stroke-opacity="0.5"/>
                                <text fill="rgba(127, 127, 127, .8)" y="9" dy="0.71em" transform="translate(-5,5) rotate(-45)" style="text-anchor: end;">12 PM</text>
                            </g>
                            <g class="tick" opacity="1" transform="translate(398.9049692988719,0)">
                                <line stroke="currentColor" y2="6" stroke-opacity="0.5"/>
                                <text fill="rgba(127, 127, 127, .8)" y="9" dy="0.71em" transform="translate(-5,5) rotate(-45)" style="text-anchor: end;">Wed 29</text>
                            </g>
                            <g class="tick" opacity="1" transform="translate(433.17599600171354,0)">
                                <line stroke="currentColor" y2="6" stroke-opacity="0.5"/>
                                <text fill="rgba(127, 127, 127, .8)" y="9" dy="0.71em" transform="translate(-5,5) rotate(-45)" style="text-anchor: end;">12 PM</text>
                            </g>
                        </g>
                        <g transform="translate(10,10)" fill="none" font-size="10" font-family="sans-serif" text-anchor="start">
                            <g class="tick" opacity="1" transform="translate(0,23.235982557469207)">
                                <line stroke="currentColor" x2="460" stroke-opacity="0.5" stroke-dasharray="2,2"/>
                                <text fill="rgba(127, 127, 127, .8)" x="0" dy="-4">150</text>
                            </g>
                            <g class="tick" opacity="1" transform="translate(0,51.53816601851174)">
                                <line stroke="currentColor" x2="460" stroke-opacity="0.5" stroke-dasharray="2,2"/>
                                <text fill="rgba(127, 127, 127, .8)" x="0" dy="-4">148</text>
                            </g>
                            <g class="tick" opacity="1" transform="translate(0,79.84034947955425)">
                                <line stroke="currentColor" x2="460" stroke-opacity="0.5" stroke-dasharray="2,2"/>
                                <text fill="rgba(127, 127, 127, .8)" x="0" dy="-4">146</text>
                            </g>
                            <g class="tick" opacity="1" transform="translate(0,108.14253294059677)">
                                <line stroke="currentColor" x2="460" stroke-opacity="0.5" stroke-dasharray="2,2"/>
                                <text fill="rgba(127, 127, 127, .8)" x="0" dy="-4">144</text>
                            </g>
                            <g class="tick" opacity="1" transform="translate(0,136.44471640163925)">
                                <line stroke="currentColor" x2="460" stroke-opacity="0.5" stroke-dasharray="2,2"/>
                                <text fill="rgba(127, 127, 127, .8)" x="0" dy="-4">142</text>
                            </g>
                        </g>
                        <path transform="translate(10,10)" d="M10,31.507L18.568,30.828L21.424,20.33L24.28,29.816L25.708,23.868L28.563,19.694L31.419,23.868L34.275,40.425L37.131,31.439L39.987,32.925L42.843,32.783L44.271,33.349L49.983,85.848L78.542,24.134L81.398,28.962L87.11,26.175L92.822,26.698L94.25,26.415L97.106,21.958L99.961,17.076L102.817,17.005L105.673,17.5L108.529,15.66L111.385,15.377L112.813,15.802L115.669,15.802L118.525,13.375L121.381,145L284.168,16.33L287.024,10.071L292.736,15.802L298.448,18.774L299.876,16.934L302.732,19.41L305.588,17.925L308.444,16.722L311.299,16.226L314.155,15.519L317.011,15.519L318.439,15.519L324.151,10L327.007,26.323L352.71,17.398L355.566,10L358.422,15.66L361.278,14.561L364.134,15.519L368.418,29.953L371.274,32.217L374.13,30.944L376.986,31.51L379.841,28.113L382.697,28.679L385.553,28.538L386.981,28.113L395.549,13.34L421.252,25.396L426.964,41.514L429.82,41.557L432.676,23.476L435.532,28.991L436.96,31.37L439.816,33.774L442.672,37.524L445.528,37.878L448.384,40.213L451.239,36.463L454.095,35.047L455.523,13.34L458.379,13.34L460,13.34" fill="transparent" stroke="#87ceeb" stroke-width="2"/>
                        <path transform="translate(10,10)" d="M10,145L18.568,145L21.424,145L24.28,145L25.708,145L28.563,145L31.419,145L34.275,145L37.131,145L39.987,145L42.843,145L44.271,145L49.983,145L78.542,145L81.398,145L87.11,145L92.822,145L94.25,145L97.106,145L99.961,145L102.817,145L105.673,145L108.529,145L111.385,145L112.813,145L115.669,145L118.525,145L121.381,145L284.168,145L287.024,145L292.736,145L298.448,145L299.876,145L302.732,145L305.588,145L308.444,145L311.299,145L314.155,145L317.011,145L318.439,145L324.151,145L327.007,145L352.71,145L355.566,145L358.422,145L361.278,145L364.134,145L368.418,145L371.274,145L374.13,145L376.986,145L379.841,145L382.697,145L385.553,145L386.981,145L395.549,145L421.252,145L426.964,145L429.82,145L432.676,145L435.532,145L436.96,145L439.816,145L442.672,145L445.528,145L448.384,145L451.239,145L454.095,145L455.523,145L458.379,145L460,145L460,13.34L458.379,13.34L455.523,13.34L454.095,35.047L451.239,36.463L448.384,40.213L445.528,37.878L442.672,37.524L439.816,33.774L436.96,31.37L435.532,28.991L432.676,23.476L429.82,41.557L426.964,41.514L421.252,25.396L395.549,13.34L386.981,28.113L385.553,28.538L382.697,28.679L379.841,28.113L376.986,31.51L374.13,30.944L371.274,32.217L368.418,29.953L364.134,15.519L361.278,14.561L358.422,15.66L355.566,10L352.71,17.398L327.007,26.323L324.151,10L318.439,15.519L317.011,15.519L314.155,15.519L311.299,16.226L308.444,16.722L305.588,17.925L302.732,19.41L299.876,16.934L298.448,18.774L292.736,15.802L287.024,10.071L284.168,16.33L121.381,145L118.525,13.375L115.669,15.802L112.813,15.802L111.385,15.377L108.529,15.66L105.673,17.5L102.817,17.005L99.961,17.076L97.106,21.958L94.25,26.415L92.822,26.698L87.11,26.175L81.398,28.962L78.542,24.134L49.983,85.848L44.271,33.349L42.843,32.783L39.987,32.925L37.131,31.439L34.275,40.425L31.419,23.868L28.563,19.694L25.708,23.868L24.28,29.816L21.424,20.33L18.568,30.828L10,31.507Z" fill="rgba(88, 166, 255, .1)"/>
                    </svg>
                </div>
            </section>
        </div>
        <div xmlns="http://www.w3.org/1999/xhtml" id="metrics-end"></div>
    </foreignObject>
</svg>