<svg xmlns="http://www.w3.org/2000/svg" width="480" height="302" class="">
    <defs>
        <style/>
    </defs>
    <style>@keyframes animation-gauge{0%{stroke-dasharray:0 329}}@keyframes animation-rainbow{0%,to{color:#7f00ff;fill:#7f00ff}14%{color:#a933ff;fill:#a933ff}29%{color:#007fff;fill:#007fff}43%{color:#00ff7f;fill:#00ff7f}57%{color:#ff0;fill:#ff0}71%{color:#ff7f00;fill:#ff7f00}86%{color:red;fill:red}}svg{font-family:-apple-system,BlinkMacSystemFont,Segoe UI,Helvetica,Arial,sans-serif,Apple Color Emoji,Segoe UI Emoji;font-size:14px;color:#777}h2{margin:8px 0 2px;padding:0;color:#0366d6;font-weight:400;font-size:16px}h2 svg{fill:currentColor}section&gt;.field{margin-left:5px;margin-right:5px}.field{display:flex;align-items:center;margin-bottom:2px;white-space:nowrap}.field svg{margin:0 8px;fill:#959da5;flex-shrink:0}.row{display:flex;flex-wrap:wrap}.row section{flex:1 1 0}:root{--color-calendar-graph-day-bg:#ebedf0;--color-calendar-graph-day-border:rgba(27,31,35,0.06);--color-calendar-graph-day-L1-bg:#9be9a8;--color-calendar-graph-day-L2-bg:#40c463;--color-calendar-graph-day-L3-bg:#30a14e;--color-calendar-graph-day-L4-bg:#216e39;--color-calendar-halloween-graph-day-L1-bg:#ffee4a;--color-calendar-halloween-graph-day-L2-bg:#ffc501;--color-calendar-halloween-graph-day-L3-bg:#fe9600;--color-calendar-halloween-graph-day-L4-bg:#03001c;--color-calendar-winter-graph-day-L1-bg:#0a3069;--color-calendar-winter-graph-day-L2-bg:#0969da;--color-calendar-winter-graph-day-L3-bg:#54aeff;--color-calendar-winter-graph-day-L4-bg:#b6e3ff;--color-calendar-graph-day-L4-border:rgba(27,31,35,0.06);--color-calendar-graph-day-L3-border:rgba(27,31,35,0.06);--color-calendar-graph-day-L2-border:rgba(27,31,35,0.06);--color-calendar-graph-day-L1-border:rgba(27,31,35,0.06)}#metrics-end{width:100%}</style>
    <style/>
    <foreignObject x="0" y="0" width="100%" height="100%">
        <div xmlns="http://www.w3.org/1999/xhtml" xmlns:xlink="http://www.w3.org/1999/xlink" class="items-wrapper">
            <section>
                <h2 class="field">
                    <svg xmlns="http://www.w3.org/2000/svg" viewBox="0 0 16 16" width="16" height="16">
                        <path d="M10.75 9a.75.75 0 000 1.5h1.5a.75.75 0 000-1.5h-1.5z"/>
                        <path fill-rule="evenodd" d="M0 3.75C0 2.784.784 2 1.75 2h12.5c.966 0 1.75.784 1.75 1.75v8.5A1.75 1.75 0 0114.25 14H1.75A1.75 1.75 0 010 12.25v-8.5zm14.5 0V5h-13V3.75a.25.25 0 01.25-.25h12.5a.25.25 0 01.25.25zm0 2.75h-13v5.75c0 .138.112.25.25.25h12.5a.25.25 0 00.25-.25V6.5z"/>
                    </svg>
                    Stock prices for ACWI
                </h2>
                <div class="row">
                    <section>
                        <div class="field">
                            <svg xmlns="http://www.w3.org/2000/svg" viewBox="0 0 16 16" width="16" height="16">
                                <path fill-rule="evenodd" d="M1.5 14.25c0 .138.112.25.25.25H4v-1.25a.75.75 0 01.75-.75h2.5a.75.75 0 01.75.75v1.25h2.25a.25.25 0 00.25-.25V1.75a.25.25 0 00-.25-.25h-8.5a.25.25 0 00-.25.25v12.5zM1.75 16A1.75 1.75 0 010 14.25V1.75C0 .784.784 0 1.75 0h8.5C11.216 0 12 .784 12 1.75v12.5c0 .085-.006.168-.018.25h2.268a.25.25 0 00.25-.25V8.285a.25.25 0 00-.111-.208l-1.055-.703a.75.75 0 11.832-1.248l1.055.703c.487.325.779.871.779 1.456v5.965A1.75 1.75 0 0114.25 16h-3.5a.75.75 0 01-.197-.026c-.099.017-.2.026-.303.026h-3a.75.75 0 01-.75-.75V14h-1v1.25a.75.75 0 01-.75.75h-3zM3 3.75A.75.75 0 013.75 3h.5a.75.75 0 010 1.5h-.5A.75.75 0 013 3.75zM3.75 6a.75.75 0 000 1.5h.5a.75.75 0 000-1.5h-.5zM3 9.75A.75.75 0 013.75 9h.5a.75.75 0 010 1.5h-.5A.75.75 0 013 9.75zM7.75 9a.75.75 0 000 1.5h.5a.75.75 0 000-1.5h-.5zM7 6.75A.75.75 0 017.75 6h.5a.75.75 0 010 1.5h-.5A.75.75 0 017 6.75zM7.75 3a.75.75 0 000 1.5h.5a.75.75 0 000-1.5h-.5z"/>
                            </svg>
                            ACWI
                        </div>
                        <div class="field">
                            <svg xmlns="http://www.w3.org/2000/svg" viewBox="0 0 16 16" width="16" height="16">
                                <path fill-rule="evenodd" d="M6 2a.75.75 0 01.696.471L10 10.731l1.304-3.26A.75.75 0 0112 7h3.25a.75.75 0 010 1.5h-2.742l-1.812 4.528a.75.75 0 01-1.392 0L6 4.77 4.696 8.03A.75.75 0 014 8.5H.75a.75.75 0 010-1.5h2.742l1.812-4.529A.75.75 0 016 2z"/>
                            </svg>
                            Valued at 161.89 USD
                        </div>
                    </section>
                    <section>
                        <div class="field">
                            <svg xmlns="http://www.w3.org/2000/svg" viewBox="0 0 16 16" width="16" height="16">
                                <path fill-rule="evenodd" d="M4.75 0a.75.75 0 01.75.75V2h5V.75a.75.75 0 011.5 0V2h1.25c.966 0 1.75.784 1.75 1.75v10.5A1.75 1.75 0 0113.25 16H2.75A1.75 1.75 0 011 14.25V3.75C1 2.784 1.784 2 2.75 2H4V.75A.75.75 0 014.75 0zm0 3.5h8.5a.25.25 0 01.25.25V6h-11V3.75a.25.25 0 01.25-.25h2zm-2.25 4v6.75c0 .138.112.25.25.25h10.5a.25.25 0 00.25-.25V7.5h-11z"/>
                            </svg>
                            Last five days
                        </div>
                        <div class="field">
                            <svg xmlns="http://www.w3.org/2000/svg" viewBox="0 0 16 16" width="16" height="16">
                                <path fill-rule="evenodd" d="M13.03 8.22a.75.75 0 010 1.06l-4.25 4.25a.75.75 0 01-1.06 0L3.47 9.28a.75.75 0 011.06-1.06l2.97 2.97V3.75a.75.75 0 011.5 0v7.44l2.97-2.97a.75.75 0 011.06 0z"/>
                            </svg>
                            -0.05 USD (-0.03%)
                        </div>
                    </section>
                </div>
                <div class="stock-chart">
                    <svg xmlns="http://www.w3.org/2000/svg" width="480" height="200">
                        <g transform="translate(10,155)" fill="none" font-size="10" font-family="sans-serif" text-anchor="middle">
                            <path class="domain" stroke="rgba(127, 127, 127, .8)" d="M10.5,0.5H460.5"/>
                            <g class="tick" opacity="1" transform="translate(26.626423194176567,0)">
                                <line stroke="currentColor" y2="6" stroke-opacity="0.5"/>
                                <text fill="rgba(127, 127, 127, .8)" y="9" dy="0.71em" transform="translate(-5,5) rotate(-45)" style="text-anchor: end;">12 PM</text>
                            </g>
                            <g class="tick" opacity="1" transform="translate(75.00569277670627,0)">
                                <line stroke="currentColor" y2="6" stroke-opacity="0.5"/>
                                <text fill="rgba(127, 127, 127, .8)" y="9" dy="0.71em" transform="translate(-5,5) rotate(-45)" style="text-anchor: end;">September</text>
                            </g>
                            <g class="tick" opacity="1" transform="translate(123.38496235923598,0)">
                                <line stroke="currentColor" y2="6" stroke-opacity="0.5"/>
                                <text fill="rgba(127, 127, 127, .8)" y="9" dy="0.71em" transform="translate(-5,5) rotate(-45)" style="text-anchor: end;">12 PM</text>
                            </g>
                            <g class="tick" opacity="1" transform="translate(171.7642319417657,0)">
                                <line stroke="currentColor" y2="6" stroke-opacity="0.5"/>
                                <text fill="rgba(127, 127, 127, .8)" y="9" dy="0.71em" transform="translate(-5,5) rotate(-45)" style="text-anchor: end;">Wed 02</text>
                            </g>
                            <g class="tick" opacity="1" transform="translate(220.1435015242954,0)">
                                <line stroke="currentColor" y2="6" stroke-opacity="0.5"/>
                                <text fill="rgba(127, 127, 127, .8)" y="9" dy="0.71em" transform="translate(-5,5) rotate(-45)" style="text-anchor: end;">12 PM</text>
                            </g>
                            <g class="tick" opacity="1" transform="translate(268.5227711068251,0)">
                                <line stroke="currentColor" y2="6" stroke-opacity="0.5"/>
                                <text fill="rgba(127, 127, 127, .8)" y="9" dy="0.71em" transform="translate(-5,5) rotate(-45)" style="text-anchor: end;">Thu 03</text>
                            </g>
                            <g class="tick" opacity="1" transform="translate(316.90204068935486,0)">
                                <line stroke="currentColor" y2="6" stroke-opacity="0.5"/>
                                <text fill="rgba(127, 127, 127, .8)" y="9" dy="0.71em" transform="translate(-5,5) rotate(-45)" style="text-anchor: end;">12 PM</text>
                            </g>
                            <g class="tick" opacity="1" transform="translate(365.28131027188454,0)">
                                <line stroke="currentColor" y2="6" stroke-opacity="0.5"/>
                                <text fill="rgba(127, 127, 127, .8)" y="9" dy="0.71em" transform="translate(-5,5) rotate(-45)" style="text-anchor: end;">Fri 04</text>
                            </g>
                            <g class="tick" opacity="1" transform="translate(413.6605798544142,0)">
                                <line stroke="currentColor" y2="6" stroke-opacity="0.5"/>
                                <text fill="rgba(127, 127, 127, .8)" y="9" dy="0.71em" transform="translate(-5,5) rotate(-45)" style="text-anchor: end;">12 PM</text>
                            </g>
                        </g>
                        <g transform="translate(10,10)" fill="none" font-size="10" font-family="sans-serif" text-anchor="start">
                            <g class="tick" opacity="1" transform="translate(0,20.27591198132722)">
                                <line stroke="currentColor" x2="460" stroke-opacity="0.5" stroke-dasharray="2,2"/>
                                <text fill="rgba(127, 127, 127, .8)" x="0" dy="-4">164</text>
                            </g>
                            <g class="tick" opacity="1" transform="translate(0,42.54450419391807)">
                                <line stroke="currentColor" x2="460" stroke-opacity="0.5" stroke-dasharray="2,2"/>
                                <text fill="rgba(127, 127, 127, .8)" x="0" dy="-4">162</text>
                            </g>
                            <g class="tick" opacity="1" transform="translate(0,64.81309640650892)">
                                <line stroke="currentColor" x2="460" stroke-opacity="0.5" stroke-dasharray="2,2"/>
                                <text fill="rgba(127, 127, 127, .8)" x="0" dy="-4">160</text>
                            </g>
                            <g class="tick" opacity="1" transform="translate(0,87.08168861909976)">
                                <line stroke="currentColor" x2="460" stroke-opacity="0.5" stroke-dasharray="2,2"/>
                                <text fill="rgba(127, 127, 127, .8)" x="0" dy="-4">158</text>
                            </g>
                            <g class="tick" opacity="1" transform="translate(0,109.35028083169061)">
                                <line stroke="currentColor" x2="460" stroke-opacity="0.5" stroke-dasharray="2,2"/>
                                <text fill="rgba(127, 127, 127, .8)" x="0" dy="-4">156</text>
                            </g>
                            <g class="tick" opacity="1" transform="translate(0,131.61887304428146)">
                                <line stroke="currentColor" x2="460" stroke-opacity="0.5" stroke-dasharray="2,2"/>
                                <text fill="rgba(127, 127, 127, .8)" x="0" dy="-4">154</text>
                            </g>
                        </g>
                        <path transform="translate(10,10)" d="M10,53.179L18.063,52.177L22.095,42.568L30.158,52.221L32.174,59.403L36.205,58.022L40.237,58.69L44.269,60.305L48.3,58.802L52.332,58.635L56.363,57.354L58.379,61.975L62.411,22.44L66.442,61.307L70.474,54.515L106.759,10L110.79,56.519L114.822,62.52L118.853,64.452L122.885,64.424L126.917,64.758L128.932,64.09L132.964,64.647L136.996,67.987L141.027,69.379L145.059,71.717L149.09,70.493L153.122,70.381L155.138,63.645L163.201,64.58L167.233,73.741L203.517,70.568L207.549,66.668L211.58,70.66L223.675,71.57L225.691,62.309L229.723,61.864L233.754,64.202L237.786,64.703L241.817,63.088L245.849,62.532L249.881,62.643L251.896,62.532L255.928,145L263.991,63.202L300.276,62.624L304.307,61.307L312.37,52.789L316.402,68.053L320.434,53.034L322.449,53.457L326.481,43.993L330.513,44.049L334.544,43.436L338.576,41.265L342.607,42.49L346.639,42.935L348.655,37.09L352.686,37.09L356.718,51.286L360.75,50.306L397.034,44.271L401.066,46.276L413.161,39.15L417.192,45.273L419.208,43.548L423.24,45.608L427.271,42.601L431.303,44.995L435.334,45.329L439.366,44.605L443.398,43.381L445.413,47.322L449.445,43.269L457.508,43.269L460,42.156" fill="transparent" stroke="#87ceeb" stroke-width="2"/>
                        <path transform="translate(10,10)" d="M10,145L18.063,145L22.095,145L30.158,145L32.174,145L36.205,145L40.237,145L44.269,145L48.3,145L52.332,145L56.363,145L58.379,145L62.411,145L66.442,145L70.474,145L106.759,145L110.79,145L114.822,145L118.853,145L122.885,145L126.917,145L128.932,145L132.964,145L136.996,145L141.027,145L145.059,145L149.09,145L153.122,145L155.138,145L163.201,145L167.233,145L203.517,145L207.549,145L211.58,145L223.675,145L225.691,145L229.723,145L233.754,145L237.786,145L241.817,145L245.849,145L249.881,145L251.896,145L255.928,145L263.991,145L300.276,145L304.307,145L312.37,145L316.402,145L320.434,145L322.449,145L326.481,145L330.513,145L334.544,145L338.576,145L342.607,145L346.639,145L348.655,145L352.686,145L356.718,145L360.75,145L397.034,145L401.066,145L413.161,145L417.192,145L419.208,145L423.24,145L427.271,145L431.303,145L435.334,145L439.366,145L443.398,145L445.413,145L449.445,145L457.508,145L460,145L460,42.156L457.508,43.269L449.445,43.269L445.413,47.322L443.398,43.381L439.366,44.605L435.334,45.329L431.303,44.995L427.271,42.601L423.24,45.608L419.208,43.548L417.192,45.273L413.161,39.15L401.066,46.276L397.034,44.271L360.75,50.306L356.718,51.286L352.686,37.09L348.655,37.09L346.639,42.935L342.607,42.49L338.576,41.265L334.544,43.436L330.513,44.049L326.481,43.993L322.449,53.457L320.434,53.034L316.402,68.053L312.37,52.789L304.307,61.307L300.276,62.624L263.991,63.202L255.928,145L251.896,62.532L249.881,62.643L245.849,62.532L241.817,63.088L237.786,64.703L233.754,64.202L229.723,61.864L225.691,62.309L223.675,71.57L211.58,70.66L207.549,66.668L203.517,70.568L167.233,73.741L163.201,64.58L155.138,63.645L153.122,70.381L149.09,70.493L145.059,71.717L141.027,69.379L136.996,67.987L132.964,64.647L128.932,64.09L126.917,64.758L122.885,64.424L118.853,64.452L114.822,62.52L110.79,56.519L106.759,10L70.474,54.515L66.442,61.307L62.411,22.44L58.379,61.975L56.363,57.354L52.332,58.635L48.3,58.802L44.269,60.305L40.237,58.69L36.205,58.022L32.174,59.403L30.158,52.221L22.095,42.568L18.063,52.177L10,53.179Z" fill="rgba(88, 166, 255, .1)"/>
                    </svg>
                </div>
            </section>
        </div>
        <div xmlns="http://www.w3.org/1999/xhtml" id="metrics-end"></div>
    </foreignObject>
</svg>