<svg xmlns="http://www.w3.org/2000/svg" width="480" height="302" class="">
    <defs>
        <style/>
    </defs>
    <style>@keyframes animation-gauge{0%{stroke-dasharray:0 329}}@keyframes animation-rainbow{0%,to{color:#7f00ff;fill:#7f00ff}14%{color:#a933ff;fill:#a933ff}29%{color:#007fff;fill:#007fff}43%{color:#00ff7f;fill:#00ff7f}57%{color:#ff0;fill:#ff0}71%{color:#ff7f00;fill:#ff7f00}86%{color:red;fill:red}}svg{font-family:-apple-system,BlinkMacSystemFont,Segoe UI,Helvetica,Arial,sans-serif,Apple Color Emoji,Segoe UI Emoji;font-size:14px;color:#777}h2{margin:8px 0 2px;padding:0;color:#0366d6;font-weight:400;font-size:16px}h2 svg{fill:currentColor}section&gt;.field{margin-left:5px;margin-right:5px}.field{display:flex;align-items:center;margin-bottom:2px;white-space:nowrap}.field svg{margin:0 8px;fill:#959da5;flex-shrink:0}.row{display:flex;flex-wrap:wrap}.row section{flex:1 1 0}:root{--color-calendar-graph-day-bg:#ebedf0;--color-calendar-graph-day-border:rgba(27,31,35,0.06);--color-calendar-graph-day-L1-bg:#9be9a8;--color-calendar-graph-day-L2-bg:#40c463;--color-calendar-graph-day-L3-bg:#30a14e;--color-calendar-graph-day-L4-bg:#216e39;--color-calendar-halloween-graph-day-L1-bg:#ffee4a;--color-calendar-halloween-graph-day-L2-bg:#ffc501;--color-calendar-halloween-graph-day-L3-bg:#fe9600;--color-calendar-halloween-graph-day-L4-bg:#03001c;--color-calendar-winter-graph-day-L1-bg:#0a3069;--color-calendar-winter-graph-day-L2-bg:#0969da;--color-calendar-winter-graph-day-L3-bg:#54aeff;--color-calendar-winter-graph-day-L4-bg:#b6e3ff;--color-calendar-graph-day-L4-border:rgba(27,31,35,0.06);--color-calendar-graph-day-L3-border:rgba(27,31,35,0.06);--color-calendar-graph-day-L2-border:rgba(27,31,35,0.06);--color-calendar-graph-day-L1-border:rgba(27,31,35,0.06)}#metrics-end{width:100%}</style>
    <style/>
    <foreignObject x="0" y="0" width="100%" height="100%">
        <div xmlns="http://www.w3.org/1999/xhtml" xmlns:xlink="http://www.w3.org/1999/xlink" class="items-wrapper">
            <section>
                <h2 class="field">
                    <svg xmlns="http://www.w3.org/2000/svg" viewBox="0 0 16 16" width="16" height="16">
                        <path d="M10.75 9a.75.75 0 000 1.5h1.5a.75.75 0 000-1.5h-1.5z"/>
                        <path fill-rule="evenodd" d="M0 3.75C0 2.784.784 2 1.75 2h12.5c.966 0 1.75.784 1.75 1.75v8.5A1.75 1.75 0 0114.25 14H1.75A1.75 1.75 0 010 12.25v-8.5zm14.5 0V5h-13V3.75a.25.25 0 01.25-.25h12.5a.25.25 0 01.25.25zm0 2.75h-13v5.75c0 .138.112.25.25.25h12.5a.25.25 0 00.25-.25V6.5z"/>
                    </svg>
                    Stock prices for ACWI
                </h2>
                <div class="row">
                    <section>
                        <div class="field">
                            <svg xmlns="http://www.w3.org/2000/svg" viewBox="0 0 16 16" width="16" height="16">
                                <path fill-rule="evenodd" d="M1.5 14.25c0 .138.112.25.25.25H4v-1.25a.75.75 0 01.75-.75h2.5a.75.75 0 01.75.75v1.25h2.25a.25.25 0 00.25-.25V1.75a.25.25 0 00-.25-.25h-8.5a.25.25 0 00-.25.25v12.5zM1.75 16A1.75 1.75 0 010 14.25V1.75C0 .784.784 0 1.75 0h8.5C11.216 0 12 .784 12 1.75v12.5c0 .085-.006.168-.018.25h2.268a.25.25 0 00.25-.25V8.285a.25.25 0 00-.111-.208l-1.055-.703a.75.75 0 11.832-1.248l1.055.703c.487.325.779.871.779 1.456v5.965A1.75 1.75 0 0114.25 16h-3.5a.75.75 0 01-.197-.026c-.099.017-.2.026-.303.026h-3a.75.75 0 01-.75-.75V14h-1v1.25a.75.75 0 01-.75.75h-3zM3 3.75A.75.75 0 013.75 3h.5a.75.75 0 010 1.5h-.5A.75.75 0 013 3.75zM3.75 6a.75.75 0 000 1.5h.5a.75.75 0 000-1.5h-.5zM3 9.75A.75.75 0 013.75 9h.5a.75.75 0 010 1.5h-.5A.75.75 0 013 9.75zM7.75 9a.75.75 0 000 1.5h.5a.75.75 0 000-1.5h-.5zM7 6.75A.75.75 0 017.75 6h.5a.75.75 0 010 1.5h-.5A.75.75 0 017 6.75zM7.75 3a.75.75 0 000 1.5h.5a.75.75 0 000-1.5h-.5z"/>
                            </svg>
                            ACWI
                        </div>
                        <div class="field">
                            <svg xmlns="http://www.w3.org/2000/svg" viewBox="0 0 16 16" width="16" height="16">
                                <path fill-rule="evenodd" d="M6 2a.75.75 0 01.696.471L10 10.731l1.304-3.26A.75.75 0 0112 7h3.25a.75.75 0 010 1.5h-2.742l-1.812 4.528a.75.75 0 01-1.392 0L6 4.77 4.696 8.03A.75.75 0 014 8.5H.75a.75.75 0 010-1.5h2.742l1.812-4.529A.75.75 0 016 2z"/>
                            </svg>
                            Valued at 139.71 USD
                        </div>
                    </section>
                    <section>
                        <div class="field">
                            <svg xmlns="http://www.w3.org/2000/svg" viewBox="0 0 16 16" width="16" height="16">
                                <path fill-rule="evenodd" d="M4.75 0a.75.75 0 01.75.75V2h5V.75a.75.75 0 011.5 0V2h1.25c.966 0 1.75.784 1.75 1.75v10.5A1.75 1.75 0 0113.25 16H2.75A1.75 1.75 0 011 14.25V3.75C1 2.784 1.784 2 2.75 2H4V.75A.75.75 0 014.75 0zm0 3.5h8.5a.25.25 0 01.25.25V6h-11V3.75a.25.25 0 01.25-.25h2zm-2.25 4v6.75c0 .138.112.25.25.25h10.5a.25.25 0 00.25-.25V7.5h-11z"/>
                            </svg>
                            Last five days
                        </div>
                        <div class="field">
                            <svg xmlns="http://www.w3.org/2000/svg" viewBox="0 0 16 16" width="16" height="16">
                                <path fill-rule="evenodd" d="M13.03 8.22a.75.75 0 010 1.06l-4.25 4.25a.75.75 0 01-1.06 0L3.47 9.28a.75.75 0 011.06-1.06l2.97 2.97V3.75a.75.75 0 011.5 0v7.44l2.97-2.97a.75.75 0 011.06 0z"/>
                            </svg>
                            -2.17 USD (-1.55%)
                        </div>
                    </section>
                </div>
                <div class="stock-chart">
                    <svg xmlns="http://www.w3.org/2000/svg" width="480" height="200">
                        <g transform="translate(10,155)" fill="none" font-size="10" font-family="sans-serif" text-anchor="middle">
                            <path class="domain" stroke="rgba(127, 127, 127, .8)" d="M10.5,0.5H460.5"/>
                            <g class="tick" opacity="1" transform="translate(10.5,0)">
                                <line stroke="currentColor" y2="6" stroke-opacity="0.5"/>
                                <text fill="rgba(127, 127, 127, .8)" y="9" dy="0.71em" transform="translate(-5,5) rotate(-45)" style="text-anchor: end;">12 PM</text>
                            </g>
                            <g class="tick" opacity="1" transform="translate(45.675079252493376,0)">
                                <line stroke="currentColor" y2="6" stroke-opacity="0.5"/>
                                <text fill="rgba(127, 127, 127, .8)" y="9" dy="0.71em" transform="translate(-5,5) rotate(-45)" style="text-anchor: end;">Fri 13</text>
                            </g>
                            <g class="tick" opacity="1" transform="translate(80.85015850498675,0)">
                                <line stroke="currentColor" y2="6" stroke-opacity="0.5"/>
                                <text fill="rgba(127, 127, 127, .8)" y="9" dy="0.71em" transform="translate(-5,5) rotate(-45)" style="text-anchor: end;">12 PM</text>
                            </g>
                            <g class="tick" opacity="1" transform="translate(116.02523775748013,0)">
                                <line stroke="currentColor" y2="6" stroke-opacity="0.5"/>
                                <text fill="rgba(127, 127, 127, .8)" y="9" dy="0.71em" transform="translate(-5,5) rotate(-45)" style="text-anchor: end;">Sat 14</text>
                            </g>
                            <g class="tick" opacity="1" transform="translate(151.2003170099735,0)">
                                <line stroke="currentColor" y2="6" stroke-opacity="0.5"/>
                                <text fill="rgba(127, 127, 127, .8)" y="9" dy="0.71em" transform="translate(-5,5) rotate(-45)" style="text-anchor: end;">12 PM</text>
                            </g>
                            <g class="tick" opacity="1" transform="translate(186.37539626246686,0)">
                                <line stroke="currentColor" y2="6" stroke-opacity="0.5"/>
                                <text fill="rgba(127, 127, 127, .8)" y="9" dy="0.71em" transform="translate(-5,5) rotate(-45)" style="text-anchor: end;">Mar 15</text>
                            </g>
                            <g class="tick" opacity="1" transform="translate(221.55047551496025,0)">
                                <line stroke="currentColor" y2="6" stroke-opacity="0.5"/>
                                <text fill="rgba(127, 127, 127, .8)" y="9" dy="0.71em" transform="translate(-5,5) rotate(-45)" style="text-anchor: end;">12 PM</text>
                            </g>
                            <g class="tick" opacity="1" transform="translate(256.7255547674537,0)">
                                <line stroke="currentColor" y2="6" stroke-opacity="0.5"/>
                                <text fill="rgba(127, 127, 127, .8)" y="9" dy="0.71em" transform="translate(-5,5) rotate(-45)" style="text-anchor: end;">Mon 16</text>
                            </g>
                            <g class="tick" opacity="1" transform="translate(291.900634019947,0)">
                                <line stroke="currentColor" y2="6" stroke-opacity="0.5"/>
                                <text fill="rgba(127, 127, 127, .8)" y="9" dy="0.71em" transform="translate(-5,5) rotate(-45)" style="text-anchor: end;">12 PM</text>
                            </g>
                            <g class="tick" opacity="1" transform="translate(327.07571327244045,0)">
                                <line stroke="currentColor" y2="6" stroke-opacity="0.5"/>
                                <text fill="rgba(127, 127, 127, .8)" y="9" dy="0.71em" transform="translate(-5,5) rotate(-45)" style="text-anchor: end;">Tue 17</text>
                            </g>
                            <g class="tick" opacity="1" transform="translate(362.25079252493373,0)">
                                <line stroke="currentColor" y2="6" stroke-opacity="0.5"/>
                                <text fill="rgba(127, 127, 127, .8)" y="9" dy="0.71em" transform="translate(-5,5) rotate(-45)" style="text-anchor: end;">12 PM</text>
                            </g>
                            <g class="tick" opacity="1" transform="translate(397.4258717774272,0)">
                                <line stroke="currentColor" y2="6" stroke-opacity="0.5"/>
                                <text fill="rgba(127, 127, 127, .8)" y="9" dy="0.71em" transform="translate(-5,5) rotate(-45)" style="text-anchor: end;">Wed 18</text>
                            </g>
                            <g class="tick" opacity="1" transform="translate(432.6009510299205,0)">
                                <line stroke="currentColor" y2="6" stroke-opacity="0.5"/>
                                <text fill="rgba(127, 127, 127, .8)" y="9" dy="0.71em" transform="translate(-5,5) rotate(-45)" style="text-anchor: end;">12 PM</text>
                            </g>
                        </g>
                        <g transform="translate(10,10)" fill="none" font-size="10" font-family="sans-serif" text-anchor="start">
                            <g class="tick" opacity="1" transform="translate(0,34.859862962629514)">
                                <line stroke="currentColor" x2="460" stroke-opacity="0.5" stroke-dasharray="2,2"/>
                                <text fill="rgba(127, 127, 127, .8)" x="0" dy="-4">140</text>
                            </g>
                            <g class="tick" opacity="1" transform="translate(0,86.68922401447313)">
                                <line stroke="currentColor" x2="460" stroke-opacity="0.5" stroke-dasharray="2,2"/>
                                <text fill="rgba(127, 127, 127, .8)" x="0" dy="-4">135</text>
                            </g>
                            <g class="tick" opacity="1" transform="translate(0,138.51858506631677)">
                                <line stroke="currentColor" x2="460" stroke-opacity="0.5" stroke-dasharray="2,2"/>
                                <text fill="rgba(127, 127, 127, .8)" x="0" dy="-4">130</text>
                            </g>
                        </g>
                        <path transform="translate(10,10)" d="M10,16.427L12.931,18.811L14.397,26.223L17.328,26.482L20.259,24.046L23.191,23.683L26.122,24.616L29.053,25.497L31.984,29.695L33.45,29.695L36.381,29.281L39.313,30.939L42.244,27.104L71.556,34.36L80.35,18.5L83.281,17.505L84.747,23.009L87.678,33.427L90.61,35.604L93.541,34.463L96.472,37.48L99.403,39.646L102.335,39.232L103.8,145L106.731,35.604L109.663,38.921L291.401,39.128L295.798,17.774L298.729,18.5L301.66,24.305L304.591,20.21L307.523,18.034L310.454,18.915L313.385,18.915L314.851,19.018L317.782,19.018L361.751,19.941L364.682,18.135L366.148,10L369.079,12.281L372.01,13.11L374.941,12.799L377.873,13.887L380.804,14.146L383.735,14.768L385.201,14.872L393.995,13.317L432.101,16.323L435.032,19.329L436.498,26.223L439.429,23.996L442.36,23.009L445.292,25.808L448.223,25.134L451.154,33.997L454.085,37.159L455.551,37.366L458.482,32.287L460,32.287" fill="transparent" stroke="#87ceeb" stroke-width="2"/>
                        <path transform="translate(10,10)" d="M10,145L12.931,145L14.397,145L17.328,145L20.259,145L23.191,145L26.122,145L29.053,145L31.984,145L33.45,145L36.381,145L39.313,145L42.244,145L71.556,145L80.35,145L83.281,145L84.747,145L87.678,145L90.61,145L93.541,145L96.472,145L99.403,145L102.335,145L103.8,145L106.731,145L109.663,145L291.401,145L295.798,145L298.729,145L301.66,145L304.591,145L307.523,145L310.454,145L313.385,145L314.851,145L317.782,145L361.751,145L364.682,145L366.148,145L369.079,145L372.01,145L374.941,145L377.873,145L380.804,145L383.735,145L385.201,145L393.995,145L432.101,145L435.032,145L436.498,145L439.429,145L442.36,145L445.292,145L448.223,145L451.154,145L454.085,145L455.551,145L458.482,145L460,145L460,32.287L458.482,32.287L455.551,37.366L454.085,37.159L451.154,33.997L448.223,25.134L445.292,25.808L442.36,23.009L439.429,23.996L436.498,26.223L435.032,19.329L432.101,16.323L393.995,13.317L385.201,14.872L383.735,14.768L380.804,14.146L377.873,13.887L374.941,12.799L372.01,13.11L369.079,12.281L366.148,10L364.682,18.135L361.751,19.941L317.782,19.018L314.851,19.018L313.385,18.915L310.454,18.915L307.523,18.034L304.591,20.21L301.66,24.305L298.729,18.5L295.798,17.774L291.401,39.128L109.663,38.921L106.731,35.604L103.8,145L102.335,39.232L99.403,39.646L96.472,37.48L93.541,34.463L90.61,35.604L87.678,33.427L84.747,23.009L83.281,17.505L80.35,18.5L71.556,34.36L42.244,27.104L39.313,30.939L36.381,29.281L33.45,29.695L31.984,29.695L29.053,25.497L26.122,24.616L23.191,23.683L20.259,24.046L17.328,26.482L14.397,26.223L12.931,18.811L10,16.427Z" fill="rgba(88, 166, 255, .1)"/>
                    </svg>
                </div>
            </section>
        </div>
        <div xmlns="http://www.w3.org/1999/xhtml" id="metrics-end"></div>
    </foreignObject>
</svg>