<svg xmlns="http://www.w3.org/2000/svg" width="480" height="302" class="">
    <defs>
        <style/>
    </defs>
    <style>@keyframes animation-gauge{0%{stroke-dasharray:0 329}}@keyframes animation-rainbow{0%,to{color:#7f00ff;fill:#7f00ff}14%{color:#a933ff;fill:#a933ff}29%{color:#007fff;fill:#007fff}43%{color:#00ff7f;fill:#00ff7f}57%{color:#ff0;fill:#ff0}71%{color:#ff7f00;fill:#ff7f00}86%{color:red;fill:red}}svg{font-family:-apple-system,BlinkMacSystemFont,Segoe UI,Helvetica,Arial,sans-serif,Apple Color Emoji,Segoe UI Emoji;font-size:14px;color:#777}h2{margin:8px 0 2px;padding:0;color:#0366d6;font-weight:400;font-size:16px}h2 svg{fill:currentColor}section&gt;.field{margin-left:5px;margin-right:5px}.field{display:flex;align-items:center;margin-bottom:2px;white-space:nowrap}.field svg{margin:0 8px;fill:#959da5;flex-shrink:0}.row{display:flex;flex-wrap:wrap}.row section{flex:1 1 0}:root{--color-calendar-graph-day-bg:#ebedf0;--color-calendar-graph-day-border:rgba(27,31,35,0.06);--color-calendar-graph-day-L1-bg:#9be9a8;--color-calendar-graph-day-L2-bg:#40c463;--color-calendar-graph-day-L3-bg:#30a14e;--color-calendar-graph-day-L4-bg:#216e39;--color-calendar-halloween-graph-day-L1-bg:#ffee4a;--color-calendar-halloween-graph-day-L2-bg:#ffc501;--color-calendar-halloween-graph-day-L3-bg:#fe9600;--color-calendar-halloween-graph-day-L4-bg:#03001c;--color-calendar-winter-graph-day-L1-bg:#0a3069;--color-calendar-winter-graph-day-L2-bg:#0969da;--color-calendar-winter-graph-day-L3-bg:#54aeff;--color-calendar-winter-graph-day-L4-bg:#b6e3ff;--color-calendar-graph-day-L4-border:rgba(27,31,35,0.06);--color-calendar-graph-day-L3-border:rgba(27,31,35,0.06);--color-calendar-graph-day-L2-border:rgba(27,31,35,0.06);--color-calendar-graph-day-L1-border:rgba(27,31,35,0.06)}#metrics-end{width:100%}</style>
    <style/>
    <foreignObject x="0" y="0" width="100%" height="100%">
        <div xmlns="http://www.w3.org/1999/xhtml" xmlns:xlink="http://www.w3.org/1999/xlink" class="items-wrapper">
            <section>
                <h2 class="field">
                    <svg xmlns="http://www.w3.org/2000/svg" viewBox="0 0 16 16" width="16" height="16">
                        <path d="M10.75 9a.75.75 0 000 1.5h1.5a.75.75 0 000-1.5h-1.5z"/>
                        <path fill-rule="evenodd" d="M0 3.75C0 2.784.784 2 1.75 2h12.5c.966 0 1.75.784 1.75 1.75v8.5A1.75 1.75 0 0114.25 14H1.75A1.75 1.75 0 010 12.25v-8.5zm14.5 0V5h-13V3.75a.25.25 0 01.25-.25h12.5a.25.25 0 01.25.25zm0 2.75h-13v5.75c0 .138.112.25.25.25h12.5a.25.25 0 00.25-.25V6.5z"/>
                    </svg>
                    Stock prices for ACWI
                </h2>
                <div class="row">
                    <section>
                        <div class="field">
                            <svg xmlns="http://www.w3.org/2000/svg" viewBox="0 0 16 16" width="16" height="16">
                                <path fill-rule="evenodd" d="M1.5 14.25c0 .138.112.25.25.25H4v-1.25a.75.75 0 01.75-.75h2.5a.75.75 0 01.75.75v1.25h2.25a.25.25 0 00.25-.25V1.75a.25.25 0 00-.25-.25h-8.5a.25.25 0 00-.25.25v12.5zM1.75 16A1.75 1.75 0 010 14.25V1.75C0 .784.784 0 1.75 0h8.5C11.216 0 12 .784 12 1.75v12.5c0 .085-.006.168-.018.25h2.268a.25.25 0 00.25-.25V8.285a.25.25 0 00-.111-.208l-1.055-.703a.75.75 0 11.832-1.248l1.055.703c.487.325.779.871.779 1.456v5.965A1.75 1.75 0 0114.25 16h-3.5a.75.75 0 01-.197-.026c-.099.017-.2.026-.303.026h-3a.75.75 0 01-.75-.75V14h-1v1.25a.75.75 0 01-.75.75h-3zM3 3.75A.75.75 0 013.75 3h.5a.75.75 0 010 1.5h-.5A.75.75 0 013 3.75zM3.75 6a.75.75 0 000 1.5h.5a.75.75 0 000-1.5h-.5zM3 9.75A.75.75 0 013.75 9h.5a.75.75 0 010 1.5h-.5A.75.75 0 013 9.75zM7.75 9a.75.75 0 000 1.5h.5a.75.75 0 000-1.5h-.5zM7 6.75A.75.75 0 017.75 6h.5a.75.75 0 010 1.5h-.5A.75.75 0 017 6.75zM7.75 3a.75.75 0 000 1.5h.5a.75.75 0 000-1.5h-.5z"/>
                            </svg>
                            ACWI
                        </div>
                        <div class="field">
                            <svg xmlns="http://www.w3.org/2000/svg" viewBox="0 0 16 16" width="16" height="16">
                                <path fill-rule="evenodd" d="M6 2a.75.75 0 01.696.471L10 10.731l1.304-3.26A.75.75 0 0112 7h3.25a.75.75 0 010 1.5h-2.742l-1.812 4.528a.75.75 0 01-1.392 0L6 4.77 4.696 8.03A.75.75 0 014 8.5H.75a.75.75 0 010-1.5h2.742l1.812-4.529A.75.75 0 016 2z"/>
                            </svg>
                            Valued at 149.25 USD
                        </div>
                    </section>
                    <section>
                        <div class="field">
                            <svg xmlns="http://www.w3.org/2000/svg" viewBox="0 0 16 16" width="16" height="16">
                                <path fill-rule="evenodd" d="M4.75 0a.75.75 0 01.75.75V2h5V.75a.75.75 0 011.5 0V2h1.25c.966 0 1.75.784 1.75 1.75v10.5A1.75 1.75 0 0113.25 16H2.75A1.75 1.75 0 011 14.25V3.75C1 2.784 1.784 2 2.75 2H4V.75A.75.75 0 014.75 0zm0 3.5h8.5a.25.25 0 01.25.25V6h-11V3.75a.25.25 0 01.25-.25h2zm-2.25 4v6.75c0 .138.112.25.25.25h10.5a.25.25 0 00.25-.25V7.5h-11z"/>
                            </svg>
                            Last five days
                        </div>
                        <div class="field">
                            <svg xmlns="http://www.w3.org/2000/svg" viewBox="0 0 16 16" width="16" height="16">
                                <path fill-rule="evenodd" d="M13.03 8.22a.75.75 0 010 1.06l-4.25 4.25a.75.75 0 01-1.06 0L3.47 9.28a.75.75 0 011.06-1.06l2.97 2.97V3.75a.75.75 0 011.5 0v7.44l2.97-2.97a.75.75 0 011.06 0z"/>
                            </svg>
                            -0.92 USD (-0.62%)
                        </div>
                    </section>
                </div>
                <div class="stock-chart">
                    <svg xmlns="http://www.w3.org/2000/svg" width="480" height="200">
                        <g transform="translate(10,155)" fill="none" font-size="10" font-family="sans-serif" text-anchor="middle">
                            <path class="domain" stroke="rgba(127, 127, 127, .8)" d="M10.5,0.5H460.5"/>
                            <g class="tick" opacity="1" transform="translate(22.038461538461537,0)">
                                <line stroke="currentColor" y2="6" stroke-opacity="0.5"/>
                                <text fill="rgba(127, 127, 127, .8)" y="9" dy="0.71em" transform="translate(-5,5) rotate(-45)" style="text-anchor: end;">12 PM</text>
                            </g>
                            <g class="tick" opacity="1" transform="translate(56.653846153846146,0)">
                                <line stroke="currentColor" y2="6" stroke-opacity="0.5"/>
                                <text fill="rgba(127, 127, 127, .8)" y="9" dy="0.71em" transform="translate(-5,5) rotate(-45)" style="text-anchor: end;">Sat 18</text>
                            </g>
                            <g class="tick" opacity="1" transform="translate(91.26923076923077,0)">
                                <line stroke="currentColor" y2="6" stroke-opacity="0.5"/>
                                <text fill="rgba(127, 127, 127, .8)" y="9" dy="0.71em" transform="translate(-5,5) rotate(-45)" style="text-anchor: end;">12 PM</text>
                            </g>
                            <g class="tick" opacity="1" transform="translate(125.88461538461537,0)">
                                <line stroke="currentColor" y2="6" stroke-opacity="0.5"/>
                                <text fill="rgba(127, 127, 127, .8)" y="9" dy="0.71em" transform="translate(-5,5) rotate(-45)" style="text-anchor: end;">Apr 19</text>
                            </g>
                            <g class="tick" opacity="1" transform="translate(160.49999999999997,0)">
                                <line stroke="currentColor" y2="6" stroke-opacity="0.5"/>
                                <text fill="rgba(127, 127, 127, .8)" y="9" dy="0.71em" transform="translate(-5,5) rotate(-45)" style="text-anchor: end;">12 PM</text>
                            </g>
                            <g class="tick" opacity="1" transform="translate(195.11538461538458,0)">
                                <line stroke="currentColor" y2="6" stroke-opacity="0.5"/>
                                <text fill="rgba(127, 127, 127, .8)" y="9" dy="0.71em" transform="translate(-5,5) rotate(-45)" style="text-anchor: end;">Mon 20</text>
                            </g>
                            <g class="tick" opacity="1" transform="translate(229.73076923076923,0)">
                                <line stroke="currentColor" y2="6" stroke-opacity="0.5"/>
                                <text fill="rgba(127, 127, 127, .8)" y="9" dy="0.71em" transform="translate(-5,5) rotate(-45)" style="text-anchor: end;">12 PM</text>
                            </g>
                            <g class="tick" opacity="1" transform="translate(264.34615384615387,0)">
                                <line stroke="currentColor" y2="6" stroke-opacity="0.5"/>
                                <text fill="rgba(127, 127, 127, .8)" y="9" dy="0.71em" transform="translate(-5,5) rotate(-45)" style="text-anchor: end;">Tue 21</text>
                            </g>
                            <g class="tick" opacity="1" transform="translate(298.9615384615385,0)">
                                <line stroke="currentColor" y2="6" stroke-opacity="0.5"/>
                                <text fill="rgba(127, 127, 127, .8)" y="9" dy="0.71em" transform="translate(-5,5) rotate(-45)" style="text-anchor: end;">12 PM</text>
                            </g>
                            <g class="tick" opacity="1" transform="translate(333.5769230769231,0)">
                                <line stroke="currentColor" y2="6" stroke-opacity="0.5"/>
                                <text fill="rgba(127, 127, 127, .8)" y="9" dy="0.71em" transform="translate(-5,5) rotate(-45)" style="text-anchor: end;">Wed 22</text>
                            </g>
                            <g class="tick" opacity="1" transform="translate(368.1923076923077,0)">
                                <line stroke="currentColor" y2="6" stroke-opacity="0.5"/>
                                <text fill="rgba(127, 127, 127, .8)" y="9" dy="0.71em" transform="translate(-5,5) rotate(-45)" style="text-anchor: end;">12 PM</text>
                            </g>
                            <g class="tick" opacity="1" transform="translate(402.8076923076923,0)">
                                <line stroke="currentColor" y2="6" stroke-opacity="0.5"/>
                                <text fill="rgba(127, 127, 127, .8)" y="9" dy="0.71em" transform="translate(-5,5) rotate(-45)" style="text-anchor: end;">Thu 23</text>
                            </g>
                            <g class="tick" opacity="1" transform="translate(437.4230769230769,0)">
                                <line stroke="currentColor" y2="6" stroke-opacity="0.5"/>
                                <text fill="rgba(127, 127, 127, .8)" y="9" dy="0.71em" transform="translate(-5,5) rotate(-45)" style="text-anchor: end;">12 PM</text>
                            </g>
                        </g>
                        <g transform="translate(10,10)" fill="none" font-size="10" font-family="sans-serif" text-anchor="start">
                            <g class="tick" opacity="1" transform="translate(0,32.81758549528297)">
                                <line stroke="currentColor" x2="460" stroke-opacity="0.5" stroke-dasharray="2,2"/>
                                <text fill="rgba(127, 127, 127, .8)" x="0" dy="-4">151</text>
                            </g>
                            <g class="tick" opacity="1" transform="translate(0,57.69229068396222)">
                                <line stroke="currentColor" x2="460" stroke-opacity="0.5" stroke-dasharray="2,2"/>
                                <text fill="rgba(127, 127, 127, .8)" x="0" dy="-4">150</text>
                            </g>
                            <g class="tick" opacity="1" transform="translate(0,82.56699587264147)">
                                <line stroke="currentColor" x2="460" stroke-opacity="0.5" stroke-dasharray="2,2"/>
                                <text fill="rgba(127, 127, 127, .8)" x="0" dy="-4">149</text>
                            </g>
                            <g class="tick" opacity="1" transform="translate(0,107.44170106132073)">
                                <line stroke="currentColor" x2="460" stroke-opacity="0.5" stroke-dasharray="2,2"/>
                                <text fill="rgba(127, 127, 127, .8)" x="0" dy="-4">148</text>
                            </g>
                            <g class="tick" opacity="1" transform="translate(0,132.31640624999997)">
                                <line stroke="currentColor" x2="460" stroke-opacity="0.5" stroke-dasharray="2,2"/>
                                <text fill="rgba(127, 127, 127, .8)" x="0" dy="-4">147</text>
                            </g>
                        </g>
                        <path transform="translate(10,10)" d="M10,84.554L12.885,80.027L15.769,48.735L18.654,49.65L21.538,85.301L24.423,35.551L25.865,32.939L28.75,31.074L31.635,25.601L34.519,35.8L37.404,35.178L40.288,38.785L43.173,35.302L44.615,34.805L47.5,17.393L50.385,13.134L223.462,81.818L226.346,63.958L229.231,52.068L232.115,44.544L233.558,46.745L236.442,47.243L239.327,52.217L242.212,51.347L245.096,49.232L247.981,49.854L250.865,45.999L252.308,46.994L255.192,52.217L286.923,68.182L289.808,68.182L295.577,10L301.346,50.227L302.788,45.374L305.673,67.888L308.558,70.376L311.442,83.062L314.327,79.952L317.212,65.899L320.096,88.534L321.538,88.534L324.423,88.534L327.308,62.381L356.154,27.591L359.038,84.04L361.923,41.559L367.692,71.184L370.577,61.918L372.019,53.71L374.904,57.192L377.788,61.421L380.673,57.565L383.558,60.302L386.442,55.575L389.327,52.217L390.769,50.227L393.654,145L396.538,53.212L399.423,53.212L425.385,72.61L431.154,75.55L434.038,78.721L436.923,72.117L439.808,69.637L441.25,59.182L444.135,51.844L447.019,59.182L449.904,88.286L452.788,72.49L455.673,75.102L458.558,74.853L460,75.848" fill="transparent" stroke="#87ceeb" stroke-width="2"/>
                        <path transform="translate(10,10)" d="M10,145L12.885,145L15.769,145L18.654,145L21.538,145L24.423,145L25.865,145L28.75,145L31.635,145L34.519,145L37.404,145L40.288,145L43.173,145L44.615,145L47.5,145L50.385,145L223.462,145L226.346,145L229.231,145L232.115,145L233.558,145L236.442,145L239.327,145L242.212,145L245.096,145L247.981,145L250.865,145L252.308,145L255.192,145L286.923,145L289.808,145L295.577,145L301.346,145L302.788,145L305.673,145L308.558,145L311.442,145L314.327,145L317.212,145L320.096,145L321.538,145L324.423,145L327.308,145L356.154,145L359.038,145L361.923,145L367.692,145L370.577,145L372.019,145L374.904,145L377.788,145L380.673,145L383.558,145L386.442,145L389.327,145L390.769,145L393.654,145L396.538,145L399.423,145L425.385,145L431.154,145L434.038,145L436.923,145L439.808,145L441.25,145L444.135,145L447.019,145L449.904,145L452.788,145L455.673,145L458.558,145L460,145L460,75.848L458.558,74.853L455.673,75.102L452.788,72.49L449.904,88.286L447.019,59.182L444.135,51.844L441.25,59.182L439.808,69.637L436.923,72.117L434.038,78.721L431.154,75.55L425.385,72.61L399.423,53.212L396.538,53.212L393.654,145L390.769,50.227L389.327,52.217L386.442,55.575L383.558,60.302L380.673,57.565L377.788,61.421L374.904,57.192L372.019,53.71L370.577,61.918L367.692,71.184L361.923,41.559L359.038,84.04L356.154,27.591L327.308,62.381L324.423,88.534L321.538,88.534L320.096,88.534L317.212,65.899L314.327,79.952L311.442,83.062L308.558,70.376L305.673,67.888L302.788,45.374L301.346,50.227L295.577,10L289.808,68.182L286.923,68.182L255.192,52.217L252.308,46.994L250.865,45.999L247.981,49.854L245.096,49.232L242.212,51.347L239.327,52.217L236.442,47.243L233.558,46.745L232.115,44.544L229.231,52.068L226.346,63.958L223.462,81.818L50.385,13.134L47.5,17.393L44.615,34.805L43.173,35.302L40.288,38.785L37.404,35.178L34.519,35.8L31.635,25.601L28.75,31.074L25.865,32.939L24.423,35.551L21.538,85.301L18.654,49.65L15.769,48.735L12.885,80.027L10,84.554Z" fill="rgba(88, 166, 255, .1)"/>
                    </svg>
                </div>
            </section>
        </div>
        <div xmlns="http://www.w3.org/1999/xhtml" id="metrics-end"></div>
    </foreignObject>
</svg>