<svg xmlns="http://www.w3.org/2000/svg" width="480" height="302" class="">
    <defs>
        <style/>
    </defs>
    <style>@keyframes animation-gauge{0%{stroke-dasharray:0 329}}@keyframes animation-rainbow{0%,to{color:#7f00ff;fill:#7f00ff}14%{color:#a933ff;fill:#a933ff}29%{color:#007fff;fill:#007fff}43%{color:#00ff7f;fill:#00ff7f}57%{color:#ff0;fill:#ff0}71%{color:#ff7f00;fill:#ff7f00}86%{color:red;fill:red}}svg{font-family:-apple-system,BlinkMacSystemFont,Segoe UI,Helvetica,Arial,sans-serif,Apple Color Emoji,Segoe UI Emoji;font-size:14px;color:#777}h2{margin:8px 0 2px;padding:0;color:#0366d6;font-weight:400;font-size:16px}h2 svg{fill:currentColor}section&gt;.field{margin-left:5px;margin-right:5px}.field{display:flex;align-items:center;margin-bottom:2px;white-space:nowrap}.field svg{margin:0 8px;fill:#959da5;flex-shrink:0}.row{display:flex;flex-wrap:wrap}.row section{flex:1 1 0}:root{--color-calendar-graph-day-bg:#ebedf0;--color-calendar-graph-day-border:rgba(27,31,35,0.06);--color-calendar-graph-day-L1-bg:#9be9a8;--color-calendar-graph-day-L2-bg:#40c463;--color-calendar-graph-day-L3-bg:#30a14e;--color-calendar-graph-day-L4-bg:#216e39;--color-calendar-halloween-graph-day-L1-bg:#ffee4a;--color-calendar-halloween-graph-day-L2-bg:#ffc501;--color-calendar-halloween-graph-day-L3-bg:#fe9600;--color-calendar-halloween-graph-day-L4-bg:#03001c;--color-calendar-winter-graph-day-L1-bg:#0a3069;--color-calendar-winter-graph-day-L2-bg:#0969da;--color-calendar-winter-graph-day-L3-bg:#54aeff;--color-calendar-winter-graph-day-L4-bg:#b6e3ff;--color-calendar-graph-day-L4-border:rgba(27,31,35,0.06);--color-calendar-graph-day-L3-border:rgba(27,31,35,0.06);--color-calendar-graph-day-L2-border:rgba(27,31,35,0.06);--color-calendar-graph-day-L1-border:rgba(27,31,35,0.06)}#metrics-end{width:100%}</style>
    <style/>
    <foreignObject x="0" y="0" width="100%" height="100%">
        <div xmlns="http://www.w3.org/1999/xhtml" xmlns:xlink="http://www.w3.org/1999/xlink" class="items-wrapper">
            <section>
                <h2 class="field">
                    <svg xmlns="http://www.w3.org/2000/svg" viewBox="0 0 16 16" width="16" height="16">
                        <path d="M10.75 9a.75.75 0 000 1.5h1.5a.75.75 0 000-1.5h-1.5z"/>
                        <path fill-rule="evenodd" d="M0 3.75C0 2.784.784 2 1.75 2h12.5c.966 0 1.75.784 1.75 1.75v8.5A1.75 1.75 0 0114.25 14H1.75A1.75 1.75 0 010 12.25v-8.5zm14.5 0V5h-13V3.75a.25.25 0 01.25-.25h12.5a.25.25 0 01.25.25zm0 2.75h-13v5.75c0 .138.112.25.25.25h12.5a.25.25 0 00.25-.25V6.5z"/>
                    </svg>
                    Stock prices for ACWI
                </h2>
                <div class="row">
                    <section>
                        <div class="field">
                            <svg xmlns="http://www.w3.org/2000/svg" viewBox="0 0 16 16" width="16" height="16">
                                <path fill-rule="evenodd" d="M1.5 14.25c0 .138.112.25.25.25H4v-1.25a.75.75 0 01.75-.75h2.5a.75.75 0 01.75.75v1.25h2.25a.25.25 0 00.25-.25V1.75a.25.25 0 00-.25-.25h-8.5a.25.25 0 00-.25.25v12.5zM1.75 16A1.75 1.75 0 010 14.25V1.75C0 .784.784 0 1.75 0h8.5C11.216 0 12 .784 12 1.75v12.5c0 .085-.006.168-.018.25h2.268a.25.25 0 00.25-.25V8.285a.25.25 0 00-.111-.208l-1.055-.703a.75.75 0 11.832-1.248l1.055.703c.487.325.779.871.779 1.456v5.965A1.75 1.75 0 0114.25 16h-3.5a.75.75 0 01-.197-.026c-.099.017-.2.026-.303.026h-3a.75.75 0 01-.75-.75V14h-1v1.25a.75.75 0 01-.75.75h-3zM3 3.75A.75.75 0 013.75 3h.5a.75.75 0 010 1.5h-.5A.75.75 0 013 3.75zM3.75 6a.75.75 0 000 1.5h.5a.75.75 0 000-1.5h-.5zM3 9.75A.75.75 0 013.75 9h.5a.75.75 0 010 1.5h-.5A.75.75 0 013 9.75zM7.75 9a.75.75 0 000 1.5h.5a.75.75 0 000-1.5h-.5zM7 6.75A.75.75 0 017.75 6h.5a.75.75 0 010 1.5h-.5A.75.75 0 017 6.75zM7.75 3a.75.75 0 000 1.5h.5a.75.75 0 000-1.5h-.5z"/>
                            </svg>
                            ACWI
                        </div>
                        <div class="field">
                            <svg xmlns="http://www.w3.org/2000/svg" viewBox="0 0 16 16" width="16" height="16">
                                <path fill-rule="evenodd" d="M6 2a.75.75 0 01.696.471L10 10.731l1.304-3.26A.75.75 0 0112 7h3.25a.75.75 0 010 1.5h-2.742l-1.812 4.528a.75.75 0 01-1.392 0L6 4.77 4.696 8.03A.75.75 0 014 8.5H.75a.75.75 0 010-1.5h2.742l1.812-4.529A.75.75 0 016 2z"/>
                            </svg>
                            Valued at 158.04 USD
                        </div>
                    </section>
                    <section>
                        <div class="field">
                            <svg xmlns="http://www.w3.org/2000/svg" viewBox="0 0 16 16" width="16" height="16">
                                <path fill-rule="evenodd" d="M4.75 0a.75.75 0 01.75.75V2h5V.75a.75.75 0 011.5 0V2h1.25c.966 0 1.75.784 1.75 1.75v10.5A1.75 1.75 0 0113.25 16H2.75A1.75 1.75 0 011 14.25V3.75C1 2.784 1.784 2 2.75 2H4V.75A.75.75 0 014.75 0zm0 3.5h8.5a.25.25 0 01.25.25V6h-11V3.75a.25.25 0 01.25-.25h2zm-2.25 4v6.75c0 .138.112.25.25.25h10.5a.25.25 0 00.25-.25V7.5h-11z"/>
                            </svg>
                            Last five days
                        </div>
                        <div class="field">
                            <svg xmlns="http://www.w3.org/2000/svg" viewBox="0 0 16 16" width="16" height="16">
                                <path fill-rule="evenodd" d="M3.47 7.78a.75.75 0 010-1.06l4.25-4.25a.75.75 0 011.06 0l4.25 4.25a.75.75 0 01-1.06 1.06L9 4.81v7.44a.75.75 0 01-1.5 0V4.81L4.53 7.78a.75.75 0 01-1.06 0z"/>
                            </svg>
                            +1.57 USD (+0.99%)
                        </div>
                    </section>
                </div>
                <div class="stock-chart">
                    <svg xmlns="http://www.w3.org/2000/svg" width="480" height="200">
                        <g transform="translate(10,155)" fill="none" font-size="10" font-family="sans-serif" text-anchor="middle">
                            <path class="domain" stroke="rgba(127, 127, 127, .8)" d="M10.5,0.5H460.5"/>
                            <g class="tick" opacity="1" transform="translate(21.839713672229777,0)">
                                <line stroke="currentColor" y2="6" stroke-opacity="0.5"/>
                                <text fill="rgba(127, 127, 127, .8)" y="9" dy="0.71em" transform="translate(-5,5) rotate(-45)" style="text-anchor: end;">12 PM</text>
                            </g>
                            <g class="tick" opacity="1" transform="translate(55.85885468891911,0)">
                                <line stroke="currentColor" y2="6" stroke-opacity="0.5"/>
                                <text fill="rgba(127, 127, 127, .8)" y="9" dy="0.71em" transform="translate(-5,5) rotate(-45)" style="text-anchor: end;">Wed 10</text>
                            </g>
                            <g class="tick" opacity="1" transform="translate(89.87799570560843,0)">
                                <line stroke="currentColor" y2="6" stroke-opacity="0.5"/>
                                <text fill="rgba(127, 127, 127, .8)" y="9" dy="0.71em" transform="translate(-5,5) rotate(-45)" style="text-anchor: end;">12 PM</text>
                            </g>
                            <g class="tick" opacity="1" transform="translate(123.89713672229776,0)">
                                <line stroke="currentColor" y2="6" stroke-opacity="0.5"/>
                                <text fill="rgba(127, 127, 127, .8)" y="9" dy="0.71em" transform="translate(-5,5) rotate(-45)" style="text-anchor: end;">Thu 11</text>
                            </g>
                            <g class="tick" opacity="1" transform="translate(157.91627773898708,0)">
                                <line stroke="currentColor" y2="6" stroke-opacity="0.5"/>
                                <text fill="rgba(127, 127, 127, .8)" y="9" dy="0.71em" transform="translate(-5,5) rotate(-45)" style="text-anchor: end;">12 PM</text>
                            </g>
                            <g class="tick" opacity="1" transform="translate(191.93541875567644,0)">
                                <line stroke="currentColor" y2="6" stroke-opacity="0.5"/>
                                <text fill="rgba(127, 127, 127, .8)" y="9" dy="0.71em" transform="translate(-5,5) rotate(-45)" style="text-anchor: end;">Fri 12</text>
                            </g>
                            <g class="tick" opacity="1" transform="translate(225.95455977236574,0)">
                                <line stroke="currentColor" y2="6" stroke-opacity="0.5"/>
                                <text fill="rgba(127, 127, 127, .8)" y="9" dy="0.71em" transform="translate(-5,5) rotate(-45)" style="text-anchor: end;">12 PM</text>
                            </g>
                            <g class="tick" opacity="1" transform="translate(259.9737007890551,0)">
                                <line stroke="currentColor" y2="6" stroke-opacity="0.5"/>
                                <text fill="rgba(127, 127, 127, .8)" y="9" dy="0.71em" transform="translate(-5,5) rotate(-45)" style="text-anchor: end;">Sat 13</text>
                            </g>
                            <g class="tick" opacity="1" transform="translate(293.9928418057444,0)">
                                <line stroke="currentColor" y2="6" stroke-opacity="0.5"/>
                                <text fill="rgba(127, 127, 127, .8)" y="9" dy="0.71em" transform="translate(-5,5) rotate(-45)" style="text-anchor: end;">12 PM</text>
                            </g>
                            <g class="tick" opacity="1" transform="translate(328.0119828224337,0)">
                                <line stroke="currentColor" y2="6" stroke-opacity="0.5"/>
                                <text fill="rgba(127, 127, 127, .8)" y="9" dy="0.71em" transform="translate(-5,5) rotate(-45)" style="text-anchor: end;">Jun 14</text>
                            </g>
                            <g class="tick" opacity="1" transform="translate(362.03112383912304,0)">
                                <line stroke="currentColor" y2="6" stroke-opacity="0.5"/>
                                <text fill="rgba(127, 127, 127, .8)" y="9" dy="0.71em" transform="translate(-5,5) rotate(-45)" style="text-anchor: end;">12 PM</text>
                            </g>
                            <g class="tick" opacity="1" transform="translate(396.0502648558124,0)">
                                <line stroke="currentColor" y2="6" stroke-opacity="0.5"/>
                                <text fill="rgba(127, 127, 127, .8)" y="9" dy="0.71em" transform="translate(-5,5) rotate(-45)" style="text-anchor: end;">Mon 15</text>
                            </g>
                            <g class="tick" opacity="1" transform="translate(430.0694058725017,0)">
                                <line stroke="currentColor" y2="6" stroke-opacity="0.5"/>
                                <text fill="rgba(127, 127, 127, .8)" y="9" dy="0.71em" transform="translate(-5,5) rotate(-45)" style="text-anchor: end;">12 PM</text>
                            </g>
                        </g>
                        <g transform="translate(10,10)" fill="none" font-size="10" font-family="sans-serif" text-anchor="start">
                            <g class="tick" opacity="1" transform="translate(0,24.366064092029596)">
                                <line stroke="currentColor" x2="460" stroke-opacity="0.5" stroke-dasharray="2,2"/>
                                <text fill="rgba(127, 127, 127, .8)" x="0" dy="-4">162</text>
                            </g>
                            <g class="tick" opacity="1" transform="translate(0,46.55176663927695)">
                                <line stroke="currentColor" x2="460" stroke-opacity="0.5" stroke-dasharray="2,2"/>
                                <text fill="rgba(127, 127, 127, .8)" x="0" dy="-4">160</text>
                            </g>
                            <g class="tick" opacity="1" transform="translate(0,68.7374691865243)">
                                <line stroke="currentColor" x2="460" stroke-opacity="0.5" stroke-dasharray="2,2"/>
                                <text fill="rgba(127, 127, 127, .8)" x="0" dy="-4">158</text>
                            </g>
                            <g class="tick" opacity="1" transform="translate(0,90.92317173377165)">
                                <line stroke="currentColor" x2="460" stroke-opacity="0.5" stroke-dasharray="2,2"/>
                                <text fill="rgba(127, 127, 127, .8)" x="0" dy="-4">156</text>
                            </g>
                            <g class="tick" opacity="1" transform="translate(0,113.108874281019)">
                                <line stroke="currentColor" x2="460" stroke-opacity="0.5" stroke-dasharray="2,2"/>
                                <text fill="rgba(127, 127, 127, .8)" x="0" dy="-4">154</text>
                            </g>
                            <g class="tick" opacity="1" transform="translate(0,135.29457682826634)">
                                <line stroke="currentColor" x2="460" stroke-opacity="0.5" stroke-dasharray="2,2"/>
                                <text fill="rgba(127, 127, 127, .8)" x="0" dy="-4">152</text>
                            </g>
                        </g>
                        <path transform="translate(10,10)" d="M10,94.638L15.67,101.627L18.505,101.799L21.34,102.403L24.175,77.555L25.592,94.25L28.427,118.599L31.262,127.806L34.097,119.154L36.932,110.002L39.767,110.501L42.602,105.066L44.019,105.953L46.854,105.953L49.689,113.527L52.524,97.304L78.038,109.373L80.873,114.121L86.543,10L89.378,113.463L92.213,117.49L93.63,105.288L96.465,118.377L99.3,120.041L102.135,123.036L104.97,122.204L107.805,131.023L110.64,131.91L112.057,129.248L114.892,127.251L117.727,13.677L146.077,128.686L148.911,105.091L154.581,105.796L157.416,145L160.251,118.488L161.669,119.154L164.504,122.371L167.339,121.261L170.173,109.725L173.008,103.624L175.843,94.028L178.678,92.753L180.096,92.309L182.931,92.309L188.6,93.751L214.115,92.473L219.785,81.105L222.62,98.99L225.455,89.203L228.289,85.479L229.707,90.756L232.542,80.273L235.377,86.873L238.212,83.102L241.047,84.932L243.882,84.821L246.717,85.21L248.134,82.436L250.969,85.21L253.804,87.317L418.23,60.789L421.065,81.233L423.9,60.916L426.734,63.578L429.569,64.133L432.404,68.348L433.822,68.127L436.657,66.019L439.492,63.578L442.327,64.022L445.162,66.962L447.996,67.96L450.831,67.572L452.249,72.8L455.084,35.389L457.919,64.466L460,64.483" fill="transparent" stroke="#87ceeb" stroke-width="2"/>
                        <path transform="translate(10,10)" d="M10,145L15.67,145L18.505,145L21.34,145L24.175,145L25.592,145L28.427,145L31.262,145L34.097,145L36.932,145L39.767,145L42.602,145L44.019,145L46.854,145L49.689,145L52.524,145L78.038,145L80.873,145L86.543,145L89.378,145L92.213,145L93.63,145L96.465,145L99.3,145L102.135,145L104.97,145L107.805,145L110.64,145L112.057,145L114.892,145L117.727,145L146.077,145L148.911,145L154.581,145L157.416,145L160.251,145L161.669,145L164.504,145L167.339,145L170.173,145L173.008,145L175.843,145L178.678,145L180.096,145L182.931,145L188.6,145L214.115,145L219.785,145L222.62,145L225.455,145L228.289,145L229.707,145L232.542,145L235.377,145L238.212,145L241.047,145L243.882,145L246.717,145L248.134,145L250.969,145L253.804,145L418.23,145L421.065,145L423.9,145L426.734,145L429.569,145L432.404,145L433.822,145L436.657,145L439.492,145L442.327,145L445.162,145L447.996,145L450.831,145L452.249,145L455.084,145L457.919,145L460,145L460,64.483L457.919,64.466L455.084,35.389L452.249,72.8L450.831,67.572L447.996,67.96L445.162,66.962L442.327,64.022L439.492,63.578L436.657,66.019L433.822,68.127L432.404,68.348L429.569,64.133L426.734,63.578L423.9,60.916L421.065,81.233L418.23,60.789L253.804,87.317L250.969,85.21L248.134,82.436L246.717,85.21L243.882,84.821L241.047,84.932L238.212,83.102L235.377,86.873L232.542,80.273L229.707,90.756L228.289,85.479L225.455,89.203L222.62,98.99L219.785,81.105L214.115,92.473L188.6,93.751L182.931,92.309L180.096,92.309L178.678,92.753L175.843,94.028L173.008,103.624L170.173,109.725L167.339,121.261L164.504,122.371L161.669,119.154L160.251,118.488L157.416,145L154.581,105.796L148.911,105.091L146.077,128.686L117.727,13.677L114.892,127.251L112.057,129.248L110.64,131.91L107.805,131.023L104.97,122.204L102.135,123.036L99.3,120.041L96.465,118.377L93.63,105.288L92.213,117.49L89.378,113.463L86.543,10L80.873,114.121L78.038,109.373L52.524,97.304L49.689,113.527L46.854,105.953L44.019,105.953L42.602,105.066L39.767,110.501L36.932,110.002L34.097,119.154L31.262,127.806L28.427,118.599L25.592,94.25L24.175,77.555L21.34,102.403L18.505,101.799L15.67,101.627L10,94.638Z" fill="rgba(88, 166, 255, .1)"/>
                    </svg>
                </div>
            </section>
        </div>
        <div xmlns="http://www.w3.org/1999/xhtml" id="metrics-end"></div>
    </foreignObject>
</svg>