<svg xmlns="http://www.w3.org/2000/svg" width="480" height="302" class="">
    <defs>
        <style/>
    </defs>
    <style>@keyframes animation-gauge{0%{stroke-dasharray:0 329}}@keyframes animation-rainbow{0%,to{color:#7f00ff;fill:#7f00ff}14%{color:#a933ff;fill:#a933ff}29%{color:#007fff;fill:#007fff}43%{color:#00ff7f;fill:#00ff7f}57%{color:#ff0;fill:#ff0}71%{color:#ff7f00;fill:#ff7f00}86%{color:red;fill:red}}svg{font-family:-apple-system,BlinkMacSystemFont,Segoe UI,Helvetica,Arial,sans-serif,Apple Color Emoji,Segoe UI Emoji;font-size:14px;color:#777}h2{margin:8px 0 2px;padding:0;color:#0366d6;font-weight:400;font-size:16px}h2 svg{fill:currentColor}section&gt;.field{margin-left:5px;margin-right:5px}.field{display:flex;align-items:center;margin-bottom:2px;white-space:nowrap}.field svg{margin:0 8px;fill:#959da5;flex-shrink:0}.row{display:flex;flex-wrap:wrap}.row section{flex:1 1 0}:root{--color-calendar-graph-day-bg:#ebedf0;--color-calendar-graph-day-border:rgba(27,31,35,0.06);--color-calendar-graph-day-L1-bg:#9be9a8;--color-calendar-graph-day-L2-bg:#40c463;--color-calendar-graph-day-L3-bg:#30a14e;--color-calendar-graph-day-L4-bg:#216e39;--color-calendar-halloween-graph-day-L1-bg:#ffee4a;--color-calendar-halloween-graph-day-L2-bg:#ffc501;--color-calendar-halloween-graph-day-L3-bg:#fe9600;--color-calendar-halloween-graph-day-L4-bg:#03001c;--color-calendar-winter-graph-day-L1-bg:#0a3069;--color-calendar-winter-graph-day-L2-bg:#0969da;--color-calendar-winter-graph-day-L3-bg:#54aeff;--color-calendar-winter-graph-day-L4-bg:#b6e3ff;--color-calendar-graph-day-L4-border:rgba(27,31,35,0.06);--color-calendar-graph-day-L3-border:rgba(27,31,35,0.06);--color-calendar-graph-day-L2-border:rgba(27,31,35,0.06);--color-calendar-graph-day-L1-border:rgba(27,31,35,0.06)}#metrics-end{width:100%}</style>
    <style/>
    <foreignObject x="0" y="0" width="100%" height="100%">
        <div xmlns="http://www.w3.org/1999/xhtml" xmlns:xlink="http://www.w3.org/1999/xlink" class="items-wrapper">
            <section>
                <h2 class="field">
                    <svg xmlns="http://www.w3.org/2000/svg" viewBox="0 0 16 16" width="16" height="16">
                        <path d="M10.75 9a.75.75 0 000 1.5h1.5a.75.75 0 000-1.5h-1.5z"/>
                        <path fill-rule="evenodd" d="M0 3.75C0 2.784.784 2 1.75 2h12.5c.966 0 1.75.784 1.75 1.75v8.5A1.75 1.75 0 0114.25 14H1.75A1.75 1.75 0 010 12.25v-8.5zm14.5 0V5h-13V3.75a.25.25 0 01.25-.25h12.5a.25.25 0 01.25.25zm0 2.75h-13v5.75c0 .138.112.25.25.25h12.5a.25.25 0 00.25-.25V6.5z"/>
                    </svg>
                    Stock prices for ACWI
                </h2>
                <div class="row">
                    <section>
                        <div class="field">
                            <svg xmlns="http://www.w3.org/2000/svg" viewBox="0 0 16 16" width="16" height="16">
                                <path fill-rule="evenodd" d="M1.5 14.25c0 .138.112.25.25.25H4v-1.25a.75.75 0 01.75-.75h2.5a.75.75 0 01.75.75v1.25h2.25a.25.25 0 00.25-.25V1.75a.25.25 0 00-.25-.25h-8.5a.25.25 0 00-.25.25v12.5zM1.75 16A1.75 1.75 0 010 14.25V1.75C0 .784.784 0 1.75 0h8.5C11.216 0 12 .784 12 1.75v12.5c0 .085-.006.168-.018.25h2.268a.25.25 0 00.25-.25V8.285a.25.25 0 00-.111-.208l-1.055-.703a.75.75 0 11.832-1.248l1.055.703c.487.325.779.871.779 1.456v5.965A1.75 1.75 0 0114.25 16h-3.5a.75.75 0 01-.197-.026c-.099.017-.2.026-.303.026h-3a.75.75 0 01-.75-.75V14h-1v1.25a.75.75 0 01-.75.75h-3zM3 3.75A.75.75 0 013.75 3h.5a.75.75 0 010 1.5h-.5A.75.75 0 013 3.75zM3.75 6a.75.75 0 000 1.5h.5a.75.75 0 000-1.5h-.5zM3 9.75A.75.75 0 013.75 9h.5a.75.75 0 010 1.5h-.5A.75.75 0 013 9.75zM7.75 9a.75.75 0 000 1.5h.5a.75.75 0 000-1.5h-.5zM7 6.75A.75.75 0 017.75 6h.5a.75.75 0 010 1.5h-.5A.75.75 0 017 6.75zM7.75 3a.75.75 0 000 1.5h.5a.75.75 0 000-1.5h-.5z"/>
                            </svg>
                            ACWI
                        </div>
                        <div class="field">
                            <svg xmlns="http://www.w3.org/2000/svg" viewBox="0 0 16 16" width="16" height="16">
                                <path fill-rule="evenodd" d="M6 2a.75.75 0 01.696.471L10 10.731l1.304-3.26A.75.75 0 0112 7h3.25a.75.75 0 010 1.5h-2.742l-1.812 4.528a.75.75 0 01-1.392 0L6 4.77 4.696 8.03A.75.75 0 014 8.5H.75a.75.75 0 010-1.5h2.742l1.812-4.529A.75.75 0 016 2z"/>
                            </svg>
                            Valued at 145.00 USD
                        </div>
                    </section>
                    <section>
                        <div class="field">
                            <svg xmlns="http://www.w3.org/2000/svg" viewBox="0 0 16 16" width="16" height="16">
                                <path fill-rule="evenodd" d="M4.75 0a.75.75 0 01.75.75V2h5V.75a.75.75 0 011.5 0V2h1.25c.966 0 1.75.784 1.75 1.75v10.5A1.75 1.75 0 0113.25 16H2.75A1.75 1.75 0 011 14.25V3.75C1 2.784 1.784 2 2.75 2H4V.75A.75.75 0 014.75 0zm0 3.5h8.5a.25.25 0 01.25.25V6h-11V3.75a.25.25 0 01.25-.25h2zm-2.25 4v6.75c0 .138.112.25.25.25h10.5a.25.25 0 00.25-.25V7.5h-11z"/>
                            </svg>
                            Last five days
                        </div>
                        <div class="field">
                            <svg xmlns="http://www.w3.org/2000/svg" viewBox="0 0 16 16" width="16" height="16">
                                <path fill-rule="evenodd" d="M3.47 7.78a.75.75 0 010-1.06l4.25-4.25a.75.75 0 011.06 0l4.25 4.25a.75.75 0 01-1.06 1.06L9 4.81v7.44a.75.75 0 01-1.5 0V4.81L4.53 7.78a.75.75 0 01-1.06 0z"/>
                            </svg>
                            +1.32 USD (+0.91%)
                        </div>
                    </section>
                </div>
                <div class="stock-chart">
                    <svg xmlns="http://www.w3.org/2000/svg" width="480" height="200">
                        <g transform="translate(10,155)" fill="none" font-size="10" font-family="sans-serif" text-anchor="middle">
                            <path class="domain" stroke="rgba(127, 127, 127, .8)" d="M10.5,0.5H460.5"/>
                            <g class="tick" opacity="1" transform="translate(42.86575115060064,0)">
                                <line stroke="currentColor" y2="6" stroke-opacity="0.5"/>
                                <text fill="rgba(127, 127, 127, .8)" y="9" dy="0.71em" transform="translate(-5,5) rotate(-45)" style="text-anchor: end;">Fri 27</text>
                            </g>
                            <g class="tick" opacity="1" transform="translate(78.17384331489224,0)">
                                <line stroke="currentColor" y2="6" stroke-opacity="0.5"/>
                                <text fill="rgba(127, 127, 127, .8)" y="9" dy="0.71em" transform="translate(-5,5) rotate(-45)" style="text-anchor: end;">12 PM</text>
                            </g>
                            <g class="tick" opacity="1" transform="translate(113.48193547918385,0)">
                                <line stroke="currentColor" y2="6" stroke-opacity="0.5"/>
                                <text fill="rgba(127, 127, 127, .8)" y="9" dy="0.71em" transform="translate(-5,5) rotate(-45)" style="text-anchor: end;">Sat 28</text>
                            </g>
                            <g class="tick" opacity="1" transform="translate(148.79002764347544,0)">
                                <line stroke="currentColor" y2="6" stroke-opacity="0.5"/>
                                <text fill="rgba(127, 127, 127, .8)" y="9" dy="0.71em" transform="translate(-5,5) rotate(-45)" style="text-anchor: end;">12 PM</text>
                            </g>
                            <g class="tick" opacity="1" transform="translate(184.09811980776706,0)">
                                <line stroke="currentColor" y2="6" stroke-opacity="0.5"/>
                                <text fill="rgba(127, 127, 127, .8)" y="9" dy="0.71em" transform="translate(-5,5) rotate(-45)" style="text-anchor: end;">March</text>
                            </g>
                            <g class="tick" opacity="1" transform="translate(219.40621197205866,0)">
                                <line stroke="currentColor" y2="6" stroke-opacity="0.5"/>
                                <text fill="rgba(127, 127, 127, .8)" y="9" dy="0.71em" transform="translate(-5,5) rotate(-45)" style="text-anchor: end;">12 PM</text>
                            </g>
                            <g class="tick" opacity="1" transform="translate(254.71430413635028,0)">
                                <line stroke="currentColor" y2="6" stroke-opacity="0.5"/>
                                <text fill="rgba(127, 127, 127, .8)" y="9" dy="0.71em" transform="translate(-5,5) rotate(-45)" style="text-anchor: end;">Mon 02</text>
                            </g>
                            <g class="tick" opacity="1" transform="translate(290.02239630064184,0)">
                                <line stroke="currentColor" y2="6" stroke-opacity="0.5"/>
                                <text fill="rgba(127, 127, 127, .8)" y="9" dy="0.71em" transform="translate(-5,5) rotate(-45)" style="text-anchor: end;">12 PM</text>
                            </g>
                            <g class="tick" opacity="1" transform="translate(325.33048846493347,0)">
                                <line stroke="currentColor" y2="6" stroke-opacity="0.5"/>
                                <text fill="rgba(127, 127, 127, .8)" y="9" dy="0.71em" transform="translate(-5,5) rotate(-45)" style="text-anchor: end;">Tue 03</text>
                            </g>
                            <g class="tick" opacity="1" transform="translate(360.6385806292251,0)">
                                <line stroke="currentColor" y2="6" stroke-opacity="0.5"/>
                                <text fill="rgba(127, 127, 127, .8)" y="9" dy="0.71em" transform="translate(-5,5) rotate(-45)" style="text-anchor: end;">12 PM</text>
                            </g>
                            <g class="tick" opacity="1" transform="translate(395.9466727935167,0)">
                                <line stroke="currentColor" y2="6" stroke-opacity="0.5"/>
                                <text fill="rgba(127, 127, 127, .8)" y="9" dy="0.71em" transform="translate(-5,5) rotate(-45)" style="text-anchor: end;">Wed 04</text>
                            </g>
                            <g class="tick" opacity="1" transform="translate(431.2547649578083,0)">
                                <line stroke="currentColor" y2="6" stroke-opacity="0.5"/>
                                <text fill="rgba(127, 127, 127, .8)" y="9" dy="0.71em" transform="translate(-5,5) rotate(-45)" style="text-anchor: end;">12 PM</text>
                            </g>
                        </g>
                        <g transform="translate(10,10)" fill="none" font-size="10" font-family="sans-serif" text-anchor="start">
                            <g class="tick" opacity="1" transform="translate(0,32.959614871282426)">
                                <line stroke="currentColor" x2="460" stroke-opacity="0.5" stroke-dasharray="2,2"/>
                                <text fill="rgba(127, 127, 127, .8)" x="0" dy="-4">148</text>
                            </g>
                            <g class="tick" opacity="1" transform="translate(0,65.27560749183299)">
                                <line stroke="currentColor" x2="460" stroke-opacity="0.5" stroke-dasharray="2,2"/>
                                <text fill="rgba(127, 127, 127, .8)" x="0" dy="-4">146</text>
                            </g>
                            <g class="tick" opacity="1" transform="translate(0,97.59160011238356)">
                                <line stroke="currentColor" x2="460" stroke-opacity="0.5" stroke-dasharray="2,2"/>
                                <text fill="rgba(127, 127, 127, .8)" x="0" dy="-4">144</text>
                            </g>
                            <g class="tick" opacity="1" transform="translate(0,129.90759273293412)">
                                <line stroke="currentColor" x2="460" stroke-opacity="0.5" stroke-dasharray="2,2"/>
                                <text fill="rgba(127, 127, 127, .8)" x="0" dy="-4">142</text>
                            </g>
                        </g>
                        <path transform="translate(10,10)" d="M10,10L12.942,25.027L14.414,48.618L17.356,35.53L20.298,44.255L23.241,45.386L26.183,36.176L29.125,35.368L32.068,33.429L33.539,33.268L36.481,33.268L39.423,40.7L74.732,33.268L80.616,37.792L83.559,46.485L85.03,44.901L87.972,41.67L90.914,46.598L93.857,47.648L96.799,48.133L99.741,42.477L102.684,41.185L104.155,42.478L107.097,40.096L110.04,37.792L283.638,76.571L289.522,67.199L292.465,68.007L295.407,77.54L296.878,65.745L299.821,67.199L302.763,55.889L305.705,54.919L308.648,49.264L311.59,59.605L314.532,55.727L316.003,95.314L318.946,55.889L321.888,57.017L360.139,105.655L363.081,106.242L366.023,115.347L367.494,145L370.437,120.925L373.379,110.826L376.321,104.686L379.264,102.343L382.206,97.495L385.148,102.101L386.62,102.262L389.562,102.262L392.504,30.845L430.755,93.86L433.697,84.572L436.639,93.375L438.111,81.095L441.053,85.296L443.995,83.034L446.938,81.742L449.88,77.379L452.822,78.429L455.765,81.257L457.236,73.986L460,80.934" fill="transparent" stroke="#87ceeb" stroke-width="2"/>
                        <path transform="translate(10,10)" d="M10,145L12.942,145L14.414,145L17.356,145L20.298,145L23.241,145L26.183,145L29.125,145L32.068,145L33.539,145L36.481,145L39.423,145L74.732,145L80.616,145L83.559,145L85.03,145L87.972,145L90.914,145L93.857,145L96.799,145L99.741,145L102.684,145L104.155,145L107.097,145L110.04,145L283.638,145L289.522,145L292.465,145L295.407,145L296.878,145L299.821,145L302.763,145L305.705,145L308.648,145L311.59,145L314.532,145L316.003,145L318.946,145L321.888,145L360.139,145L363.081,145L366.023,145L367.494,145L370.437,145L373.379,145L376.321,145L379.264,145L382.206,145L385.148,145L386.62,145L389.562,145L392.504,145L430.755,145L433.697,145L436.639,145L438.111,145L441.053,145L443.995,145L446.938,145L449.88,145L452.822,145L455.765,145L457.236,145L460,145L460,80.934L457.236,73.986L455.765,81.257L452.822,78.429L449.88,77.379L446.938,81.742L443.995,83.034L441.053,85.296L438.111,81.095L436.639,93.375L433.697,84.572L430.755,93.86L392.504,30.845L389.562,102.262L386.62,102.262L385.148,102.101L382.206,97.495L379.264,102.343L376.321,104.686L373.379,110.826L370.437,120.925L367.494,145L366.023,115.347L363.081,106.242L360.139,105.655L321.888,57.017L318.946,55.889L316.003,95.314L314.532,55.727L311.59,59.605L308.648,49.264L305.705,54.919L302.763,55.889L299.821,67.199L296.878,65.745L295.407,77.54L292.465,68.007L289.522,67.199L283.638,76.571L110.04,37.792L107.097,40.096L104.155,42.478L102.684,41.185L99.741,42.477L96.799,48.133L93.857,47.648L90.914,46.598L87.972,41.67L85.03,44.901L83.559,46.485L80.616,37.792L74.732,33.268L39.423,40.7L36.481,33.268L33.539,33.268L32.068,33.429L29.125,35.368L26.183,36.176L23.241,45.386L20.298,44.255L17.356,35.53L14.414,48.618L12.942,25.027L10,10Z" fill="rgba(88, 166, 255, .1)"/>
                    </svg>
                </div>
            </section>
        </div>
        <div xmlns="http://www.w3.org/1999/xhtml" id="metrics-end"></div>
    </foreignObject>
</svg>